<svg width="390" height="57" viewBox="0 0 390 57" fill="none" xmlns="http://www.w3.org/2000/svg">
<path d="M15.9848 55.9012C17.283 53.1371 17.4506 48.3293 13.8992 44.0911C11.3864 46.3861 11.1686 51.8388 15.9848 55.9012ZM9.58554 10.7464C12.7349 10.026 15.9429 6.3071 15.6916 0C12.9778 0.427174 8.07786 4.07909 9.58554 10.7464ZM9.46827 46.897C11.7214 44.602 12.9192 40.7909 11.4785 36.159C8.69769 37.1893 6.57857 41.5699 9.46827 46.897ZM10.8336 27.2386C8.34589 27.4648 4.94526 30.5555 6.10114 36.5611C8.16162 35.5811 11.0513 32.6662 10.8336 27.2386ZM12.8773 18.6533C10.1802 18.5276 6.66233 21.476 6.6707 27.2051C9.58554 26.4513 12.3747 23.6537 12.8773 18.6533ZM13.8573 11.6677C11.9978 11.2992 8.2035 12.4634 7.48317 17.9832C9.93733 17.9162 13.0029 16.1572 13.8573 11.6677ZM15.6749 56.5042C13.1202 53.1538 8.77307 48.4884 4.57671 49.0161C6.67908 55.6248 12.1737 57.9198 15.6749 56.5042ZM0.053694 36.9966C-0.0719455 43.823 4.53483 47.9943 8.60555 47.299C7.09788 43.3288 4.22492 37.474 0.053694 36.9966ZM4.39244 36.7202C4.71073 36.871 5.04577 36.9799 5.38081 37.0553C5.08765 33.1604 4.03228 27.5569 0.380356 26.0995C-0.733646 30.5974 0.598131 35.0618 4.39244 36.7202ZM5.50644 26.5518C5.84148 22.9753 5.40593 17.9664 2.26495 16.3331C0.447364 21.4592 2.57486 25.4797 5.50644 26.5518ZM6.91361 17.69C8.07786 14.3396 8.63068 9.63235 5.84148 7.47973C2.80101 12.4886 4.96201 16.4085 6.91361 17.69Z" fill="#FAFAFA"/>
<path d="M150.859 55.9012C149.561 53.1371 149.393 48.3293 152.945 44.0911C155.457 46.3861 155.675 51.8388 150.859 55.9012ZM157.258 10.7464C154.109 10.026 150.901 6.3071 151.152 0C153.866 0.427174 158.766 4.07909 157.258 10.7464ZM157.375 46.897C155.122 44.602 153.925 40.7909 155.365 36.159C158.146 37.1893 160.265 41.5699 157.375 46.897ZM156.01 27.2386C158.498 27.4648 161.898 30.5555 160.743 36.5611C158.682 35.5811 155.792 32.6662 156.01 27.2386ZM153.966 18.6533C156.664 18.5276 160.181 21.476 160.173 27.2051C157.258 26.4513 154.469 23.6537 153.966 18.6533ZM152.986 11.6677C154.846 11.2992 158.64 12.4634 159.361 17.9832C156.906 17.9162 153.841 16.1572 152.986 11.6677ZM151.169 56.5042C153.724 53.1538 158.071 48.4884 162.267 49.0161C160.165 55.6248 154.67 57.9198 151.169 56.5042ZM166.79 36.9966C166.916 43.823 162.309 47.9943 158.238 47.299C159.746 43.3288 162.619 37.474 166.79 36.9966ZM162.451 36.7202C162.133 36.871 161.798 36.9799 161.463 37.0553C161.756 33.1604 162.811 27.5569 166.463 26.0995C167.577 30.5974 166.246 35.0618 162.451 36.7202ZM161.337 26.5518C161.002 22.9753 161.438 17.9664 164.579 16.3331C166.396 21.4592 164.269 25.4797 161.337 26.5518ZM159.93 17.69C158.766 14.3396 158.213 9.63235 161.002 7.47973C164.043 12.4886 161.882 16.4085 159.93 17.69Z" fill="#FAFAFA"/>
<path d="M30.4583 33.5714V25.7237H32.97C33.3509 25.7237 33.7084 25.7668 34.0426 25.8531C34.3768 25.9357 34.666 26.0633 34.9104 26.2358C35.1547 26.4082 35.3452 26.6292 35.4817 26.8987C35.6218 27.1646 35.6919 27.4808 35.6919 27.8473C35.6883 28.0701 35.6488 28.2785 35.5733 28.4726C35.5015 28.663 35.3973 28.8319 35.2607 28.9792C35.1637 29.087 35.0541 29.1822 34.9319 29.2649C34.8134 29.3439 34.675 29.4158 34.5169 29.4805V29.4913C34.7505 29.5523 34.9499 29.6422 35.1152 29.7608C35.2805 29.8757 35.4188 30.0069 35.5302 30.1542C35.6452 30.3123 35.7314 30.4884 35.7889 30.6824C35.85 30.8729 35.8805 31.0741 35.8805 31.2861C35.8841 31.6598 35.8177 31.9886 35.6811 32.2724C35.5446 32.5563 35.3559 32.7935 35.1152 32.9839C34.8744 33.1779 34.587 33.3253 34.2528 33.4259C33.9222 33.5229 33.5629 33.5714 33.1748 33.5714H30.4583ZM31.7627 30.0249V32.5042H33.1856C33.3904 32.5042 33.5773 32.4755 33.7462 32.418C33.915 32.3605 34.0588 32.2814 34.1773 32.1808C34.3067 32.0766 34.4055 31.9491 34.4738 31.7981C34.5457 31.6436 34.5816 31.4729 34.5816 31.2861C34.5816 31.0885 34.5528 30.9142 34.4953 30.7633C34.4379 30.6088 34.3516 30.4776 34.2366 30.3698C34.1216 30.262 33.9815 30.1794 33.8162 30.1219C33.6509 30.0608 33.4623 30.0285 33.2503 30.0249H31.7627ZM31.7627 29.0385H32.997C33.209 29.0349 33.403 29.0062 33.5791 28.9523C33.7587 28.8984 33.9096 28.8193 34.0318 28.7151C34.1432 28.6217 34.2312 28.5085 34.2959 28.3756C34.3606 28.2426 34.3929 28.0899 34.3929 27.9174C34.3929 27.7342 34.3624 27.5761 34.3013 27.4431C34.2438 27.3066 34.1612 27.1952 34.0534 27.1089C33.9312 27.0011 33.7785 26.9239 33.5952 26.8772C33.412 26.8269 33.209 26.7999 32.9862 26.7963H31.7627V29.0385ZM42.8163 30.0518H39.5715V32.5042H43.3606V33.5714H38.2726V25.7237H43.3337V26.7963H39.5715V29.0062H42.8163V30.0518ZM50.0269 31.5502C50.0269 31.3669 49.9891 31.2052 49.9137 31.0651C49.8382 30.925 49.7322 30.7992 49.5957 30.6878C49.4519 30.5836 49.2813 30.4902 49.0836 30.4075C48.8896 30.3213 48.6722 30.2441 48.4315 30.1758C48.0613 30.0716 47.72 29.944 47.4074 29.7931C47.0984 29.6386 46.8342 29.4661 46.6151 29.2757C46.3959 29.0816 46.2234 28.8624 46.0976 28.6181C45.9755 28.3702 45.9144 28.0917 45.9144 27.7827C45.9144 27.4485 45.9862 27.1485 46.13 26.8826C46.2737 26.6131 46.4677 26.3831 46.7121 26.1926C46.9564 26.0058 47.2403 25.8639 47.5637 25.7668C47.8907 25.6662 48.2338 25.6159 48.5931 25.6159C48.974 25.6159 49.328 25.6752 49.655 25.7938C49.9855 25.9088 50.273 26.0705 50.5173 26.2789C50.7617 26.4909 50.9539 26.7442 51.0941 27.0389C51.2378 27.3299 51.3097 27.6533 51.3097 28.009H50.0269C50.0089 27.8114 49.9658 27.6318 49.8975 27.4701C49.8328 27.3048 49.7412 27.1628 49.6226 27.0443C49.5004 26.9293 49.3513 26.8394 49.1753 26.7748C49.0028 26.7065 48.8034 26.6723 48.577 26.6723C48.3793 26.6723 48.1961 26.6993 48.0272 26.7532C47.8619 26.8035 47.7182 26.8754 47.596 26.9688C47.4738 27.0658 47.3786 27.1826 47.3104 27.3191C47.2421 27.4557 47.2079 27.6084 47.2079 27.7773C47.2115 27.9569 47.2583 28.115 47.3481 28.2516C47.4379 28.3845 47.5583 28.5013 47.7092 28.6019C47.8637 28.7025 48.0398 28.7906 48.2374 28.866C48.4386 28.9415 48.6488 29.0116 48.868 29.0762C49.1447 29.1553 49.4142 29.2541 49.6765 29.3727C49.9424 29.4877 50.1868 29.6278 50.4095 29.7931C50.6862 30.0015 50.9072 30.2512 51.0725 30.5423C51.2414 30.8298 51.3258 31.1621 51.3258 31.5394C51.3258 31.888 51.2522 32.1952 51.1048 32.4611C50.9611 32.727 50.7671 32.948 50.5227 33.1241C50.2748 33.3073 49.9873 33.4456 49.6603 33.5391C49.3334 33.6289 48.9884 33.6738 48.6255 33.6738C48.241 33.6738 47.8619 33.6145 47.4882 33.496C47.1145 33.3738 46.7893 33.1977 46.5126 32.9677C46.2575 32.7521 46.0545 32.4988 45.9036 32.2078C45.7563 31.9167 45.6808 31.5825 45.6772 31.2052H46.9708C46.9888 31.446 47.0391 31.6562 47.1217 31.8359C47.2079 32.0119 47.3247 32.1575 47.4721 32.2724C47.6158 32.391 47.7847 32.4791 47.9787 32.5366C48.1763 32.594 48.3919 32.6228 48.6255 32.6228C48.8231 32.6228 49.0064 32.5994 49.1753 32.5527C49.3477 32.506 49.4969 32.4359 49.6226 32.3425C49.7448 32.2527 49.8418 32.1413 49.9137 32.0083C49.9891 31.8754 50.0269 31.7227 50.0269 31.5502ZM59.2371 26.7963H56.817V33.5714H55.5289V26.7963H53.125V25.7237H59.2371V26.7963ZM69.1254 33.5714V25.7237H71.6371C72.018 25.7237 72.3755 25.7668 72.7097 25.8531C73.0439 25.9357 73.3331 26.0633 73.5775 26.2358C73.8218 26.4082 74.0122 26.6292 74.1488 26.8987C74.2889 27.1646 74.359 27.4808 74.359 27.8473C74.3554 28.0701 74.3159 28.2785 74.2404 28.4726C74.1685 28.663 74.0643 28.8319 73.9278 28.9792C73.8308 29.087 73.7212 29.1822 73.599 29.2649C73.4804 29.3439 73.3421 29.4158 73.184 29.4805V29.4913C73.4176 29.5523 73.617 29.6422 73.7823 29.7608C73.9476 29.8757 74.0859 30.0069 74.1973 30.1542C74.3123 30.3123 74.3985 30.4884 74.456 30.6824C74.5171 30.8729 74.5476 31.0741 74.5476 31.2861C74.5512 31.6598 74.4848 31.9886 74.3482 32.2724C74.2117 32.5563 74.023 32.7935 73.7823 32.9839C73.5415 33.1779 73.2541 33.3253 72.9199 33.4259C72.5893 33.5229 72.23 33.5714 71.8419 33.5714H69.1254ZM70.4298 30.0249V32.5042H71.8527C72.0575 32.5042 72.2444 32.4755 72.4132 32.418C72.5821 32.3605 72.7258 32.2814 72.8444 32.1808C72.9738 32.0766 73.0726 31.9491 73.1409 31.7981C73.2127 31.6436 73.2487 31.4729 73.2487 31.2861C73.2487 31.0885 73.2199 30.9142 73.1624 30.7633C73.1049 30.6088 73.0187 30.4776 72.9037 30.3698C72.7887 30.262 72.6486 30.1794 72.4833 30.1219C72.318 30.0608 72.1294 30.0285 71.9174 30.0249H70.4298ZM70.4298 29.0385H71.664C71.876 29.0349 72.0701 29.0062 72.2461 28.9523C72.4258 28.8984 72.5767 28.8193 72.6989 28.7151C72.8103 28.6217 72.8983 28.5085 72.963 28.3756C73.0277 28.2426 73.06 28.0899 73.06 27.9174C73.06 27.7342 73.0295 27.5761 72.9684 27.4431C72.9109 27.3066 72.8283 27.1952 72.7205 27.1089C72.5983 27.0011 72.4456 26.9239 72.2623 26.8772C72.0791 26.8269 71.876 26.7999 71.6533 26.7963H70.4298V29.0385ZM81.9738 25.7237L81.9792 30.9735C81.9792 31.3795 81.9163 31.7496 81.7906 32.0838C81.6684 32.4144 81.4941 32.6982 81.2677 32.9354C81.0378 33.1726 80.7611 33.3558 80.4377 33.4852C80.1179 33.6145 79.7586 33.6792 79.3597 33.6792C78.9681 33.6792 78.6141 33.6163 78.2979 33.4906C77.9817 33.3612 77.7122 33.1779 77.4894 32.9408C77.2631 32.7036 77.087 32.418 76.9612 32.0838C76.8391 31.7496 76.7762 31.3795 76.7726 30.9735L76.7834 25.7237H78.0608L78.0715 30.9735C78.0751 31.2214 78.1057 31.4496 78.1632 31.658C78.2207 31.8628 78.3051 32.0371 78.4165 32.1808C78.5243 32.3174 78.6554 32.4252 78.81 32.5042C78.9681 32.5797 79.1513 32.6174 79.3597 32.6174C79.5717 32.6174 79.7586 32.5797 79.9203 32.5042C80.0856 32.4252 80.2239 32.3138 80.3353 32.17C80.4467 32.0227 80.5311 31.8484 80.5886 31.6472C80.6461 31.4424 80.6785 31.2178 80.6856 30.9735L80.6964 25.7237H81.9738ZM84.5437 33.5714V25.7237H86.4841C86.8219 25.7237 87.1399 25.7633 87.4381 25.8423C87.7363 25.9178 88.0076 26.0238 88.252 26.1603C88.5179 26.3004 88.7532 26.4765 88.958 26.6885C89.1665 26.9005 89.3407 27.1377 89.4809 27.4C89.6246 27.6731 89.736 27.9731 89.815 28.3001C89.8941 28.6271 89.9336 28.9756 89.9336 29.3457V29.9602C89.9336 30.3159 89.8959 30.6537 89.8204 30.9735C89.7486 31.2897 89.6444 31.5789 89.5078 31.8413C89.3749 32.0964 89.2132 32.3281 89.0227 32.5366C88.8359 32.745 88.6275 32.9228 88.3975 33.0702C88.1388 33.2318 87.8513 33.3558 87.5351 33.4421C87.2225 33.5283 86.8865 33.5714 86.5272 33.5714H84.5437ZM85.8535 26.7801V32.5204H86.5272C86.7572 32.5204 86.9674 32.4934 87.1578 32.4395C87.3519 32.382 87.5261 32.3012 87.6806 32.197C87.8387 32.0892 87.9789 31.9544 88.1011 31.7927C88.2268 31.6275 88.3292 31.4388 88.4083 31.2268C88.4765 31.0471 88.5287 30.8513 88.5646 30.6393C88.6005 30.4273 88.6185 30.2009 88.6185 29.9602V29.335C88.6185 29.0978 88.6005 28.8732 88.5646 28.6612C88.5287 28.4492 88.4765 28.2534 88.4083 28.0737C88.322 27.8545 88.2071 27.6569 88.0633 27.4808C87.9196 27.3012 87.7489 27.1556 87.5513 27.0443C87.4076 26.9616 87.2459 26.8987 87.0662 26.8556C86.8865 26.8089 86.6925 26.7837 86.4841 26.7801H85.8535ZM97.597 32.6066C97.4892 32.736 97.358 32.8617 97.2035 32.9839C97.049 33.1025 96.8747 33.2085 96.6807 33.3019C96.4363 33.4205 96.1704 33.5121 95.883 33.5768C95.5955 33.6451 95.2883 33.6792 94.9613 33.6792C94.6595 33.6792 94.3774 33.6397 94.1151 33.5606C93.8528 33.4816 93.6156 33.3702 93.4036 33.2265C93.1916 33.0827 93.0012 32.9085 92.8323 32.7036C92.667 32.4988 92.5287 32.2707 92.4173 32.0191C92.2915 31.7568 92.1963 31.4676 92.1316 31.1513C92.0669 30.8351 92.0328 30.5028 92.0292 30.1542V29.1517C92.0328 28.8139 92.0633 28.4905 92.1208 28.1815C92.1819 27.8725 92.27 27.5868 92.3849 27.3245C92.4963 27.0766 92.6293 26.8502 92.7838 26.6454C92.9383 26.4406 93.1144 26.2627 93.312 26.1118C93.5276 25.9537 93.7648 25.8315 94.0235 25.7453C94.2858 25.6591 94.5696 25.6159 94.8751 25.6159C95.2883 25.6159 95.6548 25.6716 95.9746 25.783C96.2944 25.8944 96.5675 26.0543 96.7939 26.2627C97.0238 26.4747 97.2053 26.7316 97.3383 27.0335C97.4712 27.3317 97.5556 27.6677 97.5916 28.0414H96.3196C96.2872 27.8366 96.2387 27.6515 96.174 27.4862C96.1094 27.3173 96.0231 27.1754 95.9153 27.0604C95.8003 26.9383 95.6584 26.8448 95.4895 26.7801C95.3242 26.7155 95.1284 26.6831 94.902 26.6831C94.7367 26.6831 94.584 26.7119 94.4439 26.7694C94.3037 26.8233 94.178 26.8987 94.0666 26.9957C93.9372 27.1071 93.824 27.2455 93.727 27.4108C93.6336 27.5725 93.5563 27.7539 93.4953 27.9551C93.4414 28.1312 93.4018 28.3199 93.3767 28.5211C93.3515 28.7223 93.339 28.9289 93.339 29.1409V30.1542C93.339 30.4022 93.3551 30.6375 93.3875 30.8603C93.4234 31.0831 93.4755 31.2897 93.5438 31.4801C93.5977 31.6239 93.6606 31.7586 93.7324 31.8844C93.8079 32.0101 93.8959 32.1215 93.9965 32.2185C94.1223 32.3443 94.2678 32.4413 94.4331 32.5096C94.602 32.5779 94.7924 32.6138 95.0044 32.6174C95.1302 32.6174 95.2578 32.6102 95.3871 32.5958C95.5165 32.5779 95.6404 32.5509 95.759 32.515C95.874 32.4791 95.98 32.4341 96.077 32.3802C96.174 32.3228 96.2513 32.2563 96.3088 32.1808L96.3142 30.6124H94.8912V29.6045H97.5862L97.597 32.6066ZM104.684 30.0518H101.439V32.5042H105.228V33.5714H100.14V25.7237H105.201V26.7963H101.439V29.0062H104.684V30.0518ZM113.371 26.7963H110.951V33.5714H109.663V26.7963H107.259V25.7237H113.371V26.7963ZM115.731 25.7237H120.355V26.7963H118.679V32.5042H120.355V33.5714H115.731V32.5042H117.369V26.7963H115.731V25.7237ZM128.337 33.5714H127.038L124.488 28.1707L124.483 33.5714H123.173V25.7237H124.488L127.021 31.1028L127.032 25.7237H128.337V33.5714ZM136.264 32.6066C136.156 32.736 136.025 32.8617 135.871 32.9839C135.716 33.1025 135.542 33.2085 135.348 33.3019C135.103 33.4205 134.838 33.5121 134.55 33.5768C134.263 33.6451 133.955 33.6792 133.628 33.6792C133.327 33.6792 133.044 33.6397 132.782 33.5606C132.52 33.4816 132.283 33.3702 132.071 33.2265C131.859 33.0827 131.668 32.9085 131.499 32.7036C131.334 32.4988 131.196 32.2707 131.084 32.0191C130.959 31.7568 130.863 31.4676 130.799 31.1513C130.734 30.8351 130.7 30.5028 130.696 30.1542V29.1517C130.7 28.8139 130.73 28.4905 130.788 28.1815C130.849 27.8725 130.937 27.5868 131.052 27.3245C131.163 27.0766 131.296 26.8502 131.451 26.6454C131.605 26.4406 131.781 26.2627 131.979 26.1118C132.195 25.9537 132.432 25.8315 132.691 25.7453C132.953 25.6591 133.237 25.6159 133.542 25.6159C133.955 25.6159 134.322 25.6716 134.642 25.783C134.961 25.8944 135.235 26.0543 135.461 26.2627C135.691 26.4747 135.872 26.7316 136.005 27.0335C136.138 27.3317 136.223 27.6677 136.259 28.0414H134.987C134.954 27.8366 134.906 27.6515 134.841 27.4862C134.776 27.3173 134.69 27.1754 134.582 27.0604C134.467 26.9383 134.325 26.8448 134.157 26.7801C133.991 26.7155 133.795 26.6831 133.569 26.6831C133.404 26.6831 133.251 26.7119 133.111 26.7694C132.971 26.8233 132.845 26.8987 132.734 26.9957C132.604 27.1071 132.491 27.2455 132.394 27.4108C132.301 27.5725 132.223 27.7539 132.162 27.9551C132.108 28.1312 132.069 28.3199 132.044 28.5211C132.019 28.7223 132.006 28.9289 132.006 29.1409V30.1542C132.006 30.4022 132.022 30.6375 132.055 30.8603C132.09 31.0831 132.143 31.2897 132.211 31.4801C132.265 31.6239 132.328 31.7586 132.399 31.8844C132.475 32.0101 132.563 32.1215 132.664 32.2185C132.789 32.3443 132.935 32.4413 133.1 32.5096C133.269 32.5779 133.46 32.6138 133.672 32.6174C133.797 32.6174 133.925 32.6102 134.054 32.5958C134.184 32.5779 134.308 32.5509 134.426 32.515C134.541 32.4791 134.647 32.4341 134.744 32.3802C134.841 32.3228 134.918 32.2563 134.976 32.1808L134.981 30.6124H133.558V29.6045H136.253L136.264 32.6066ZM57.48 45.7658H55.0168L54.4832 47.5714H53.1357L55.6906 39.7237H56.8386L59.3503 47.5714H58.0082L57.48 45.7658ZM55.3456 44.6555H57.162L56.2619 41.5509L55.3456 44.6555ZM62.7934 44.58V47.5714H61.4998V39.7237H64.1247C64.5199 39.7273 64.8828 39.7866 65.2134 39.9016C65.5476 40.0166 65.8351 40.1801 66.0758 40.3921C66.3165 40.6041 66.5034 40.861 66.6363 41.1628C66.7693 41.4647 66.8358 41.8042 66.8358 42.1815C66.8358 42.5444 66.7693 42.8732 66.6363 43.1679C66.5034 43.4589 66.3165 43.7087 66.0758 43.9171C65.8351 44.1291 65.5476 44.2926 65.2134 44.4075C64.8828 44.5225 64.5199 44.58 64.1247 44.58H62.7934ZM62.7934 43.5236H64.1247C64.3438 43.52 64.5397 43.4859 64.7122 43.4212C64.8882 43.3529 65.0373 43.2595 65.1595 43.1409C65.2817 43.0223 65.3733 42.8822 65.4344 42.7205C65.4991 42.5588 65.5314 42.3827 65.5314 42.1923C65.5314 41.9839 65.4991 41.7952 65.4344 41.6264C65.3733 41.4539 65.2817 41.3048 65.1595 41.179C65.0373 41.0532 64.8882 40.9562 64.7122 40.8879C64.5397 40.8197 64.3438 40.7837 64.1247 40.7801H62.7934V43.5236ZM70.5268 44.58V47.5714H69.2332V39.7237H71.8581C72.2533 39.7273 72.6163 39.7866 72.9468 39.9016C73.281 40.0166 73.5685 40.1801 73.8092 40.3921C74.05 40.6041 74.2368 40.861 74.3698 41.1628C74.5027 41.4647 74.5692 41.8042 74.5692 42.1815C74.5692 42.5444 74.5027 42.8732 74.3698 43.1679C74.2368 43.4589 74.05 43.7087 73.8092 43.9171C73.5685 44.1291 73.281 44.2926 72.9468 44.4075C72.6163 44.5225 72.2533 44.58 71.8581 44.58H70.5268ZM70.5268 43.5236H71.8581C72.0773 43.52 72.2731 43.4859 72.4456 43.4212C72.6216 43.3529 72.7708 43.2595 72.8929 43.1409C73.0151 43.0223 73.1067 42.8822 73.1678 42.7205C73.2325 42.5588 73.2648 42.3827 73.2648 42.1923C73.2648 41.9839 73.2325 41.7952 73.1678 41.6264C73.1067 41.4539 73.0151 41.3048 72.8929 41.179C72.7708 41.0532 72.6216 40.9562 72.4456 40.8879C72.2731 40.8197 72.0773 40.7837 71.8581 40.7801H70.5268V43.5236ZM89.6318 47.5714H84.3659V46.6767L86.9207 43.8955C87.1327 43.6619 87.3105 43.4535 87.4543 43.2703C87.598 43.0834 87.7148 42.9127 87.8046 42.7582C87.8908 42.6037 87.9519 42.46 87.9879 42.327C88.0274 42.1905 88.0472 42.054 88.0472 41.9174C88.0472 41.7342 88.0202 41.5671 87.9663 41.4162C87.9124 41.2652 87.8334 41.1359 87.7292 41.0281C87.6249 40.9203 87.4992 40.8358 87.3519 40.7748C87.2081 40.7137 87.0464 40.6831 86.8668 40.6831C86.6368 40.6831 86.4374 40.7155 86.2685 40.7801C86.0996 40.8448 85.9595 40.9365 85.8481 41.055C85.7331 41.1808 85.6469 41.3335 85.5894 41.5132C85.5319 41.6892 85.5031 41.8905 85.5031 42.1168H84.2096C84.2096 41.7755 84.2724 41.4539 84.3982 41.1521C84.524 40.8466 84.7036 40.5807 84.9372 40.3543C85.1672 40.128 85.4474 39.9483 85.778 39.8154C86.1122 39.6824 86.4841 39.6159 86.8937 39.6159C87.2782 39.6159 87.6214 39.6716 87.9232 39.783C88.2286 39.8944 88.4855 40.0489 88.6939 40.2465C88.8988 40.4442 89.0551 40.6813 89.1629 40.958C89.2707 41.2311 89.3246 41.5329 89.3246 41.8635C89.3246 42.1115 89.2832 42.3522 89.2006 42.5858C89.1215 42.8157 89.0119 43.0439 88.8718 43.2703C88.7281 43.4967 88.5574 43.7248 88.3598 43.9548C88.1657 44.1848 87.9537 44.4219 87.7238 44.6663L85.9774 46.5312H89.6318V47.5714ZM97.4029 44.58C97.4029 45.0831 97.3436 45.5286 97.2251 45.9167C97.1101 46.3012 96.943 46.6228 96.7238 46.8815C96.5082 47.1474 96.2423 47.3486 95.9261 47.4852C95.6135 47.6181 95.2578 47.6846 94.8589 47.6846C94.4636 47.6846 94.1079 47.6181 93.7917 47.4852C93.4755 47.3486 93.2078 47.1474 92.9886 46.8815C92.7658 46.6228 92.5951 46.3012 92.4766 45.9167C92.3616 45.5286 92.3041 45.0831 92.3041 44.58V42.7205C92.3041 42.2175 92.3616 41.7737 92.4766 41.3892C92.5951 41.0011 92.764 40.6741 92.9832 40.4082C93.2024 40.1459 93.4683 39.9483 93.7809 39.8154C94.0971 39.6788 94.4529 39.6105 94.8481 39.6105C95.247 39.6105 95.6027 39.6788 95.9153 39.8154C96.2315 39.9483 96.501 40.1459 96.7238 40.4082C96.9394 40.6741 97.1065 41.0011 97.2251 41.3892C97.3436 41.7737 97.4029 42.2175 97.4029 42.7205V44.58ZM93.5977 44.1219L96.0932 42.23C96.0788 41.9498 96.0393 41.7072 95.9746 41.5024C95.9135 41.2976 95.8255 41.1305 95.7105 41.0011C95.6099 40.8861 95.4859 40.7999 95.3386 40.7424C95.1949 40.6849 95.0314 40.6562 94.8481 40.6562C94.6505 40.6562 94.4762 40.6903 94.3253 40.7586C94.1744 40.8269 94.0486 40.9275 93.948 41.0604C93.8294 41.2113 93.7414 41.4072 93.6839 41.6479C93.6264 41.8851 93.5977 42.1653 93.5977 42.4887V43.5452C93.5977 43.6817 93.5977 43.7859 93.5977 43.8578C93.5977 43.9296 93.5977 44.0177 93.5977 44.1219ZM96.104 44.7956V43.8039C96.104 43.714 96.104 43.6206 96.104 43.5236C96.104 43.4266 96.104 43.326 96.104 43.2218L93.6084 45.1028C93.6264 45.3508 93.6641 45.57 93.7216 45.7604C93.7827 45.9509 93.8636 46.109 93.9642 46.2347C94.0648 46.3713 94.1888 46.4737 94.3361 46.5419C94.487 46.6102 94.6613 46.6443 94.8589 46.6443C95.0529 46.6443 95.2236 46.612 95.3709 46.5473C95.5183 46.4791 95.644 46.3802 95.7482 46.2509C95.8668 46.1 95.9548 45.9023 96.0123 45.658C96.0734 45.4137 96.104 45.1262 96.104 44.7956ZM105.099 47.5714H99.8327V46.6767L102.388 43.8955C102.6 43.6619 102.777 43.4535 102.921 43.2703C103.065 43.0834 103.182 42.9127 103.271 42.7582C103.358 42.6037 103.419 42.46 103.455 42.327C103.494 42.1905 103.514 42.054 103.514 41.9174C103.514 41.7342 103.487 41.5671 103.433 41.4162C103.379 41.2652 103.3 41.1359 103.196 41.0281C103.092 40.9203 102.966 40.8358 102.819 40.7748C102.675 40.7137 102.513 40.6831 102.334 40.6831C102.104 40.6831 101.904 40.7155 101.735 40.7801C101.566 40.8448 101.426 40.9365 101.315 41.055C101.2 41.1808 101.114 41.3335 101.056 41.5132C100.999 41.6892 100.97 41.8905 100.97 42.1168H99.6764C99.6764 41.7755 99.7393 41.4539 99.865 41.1521C99.9908 40.8466 100.17 40.5807 100.404 40.3543C100.634 40.128 100.914 39.9483 101.245 39.8154C101.579 39.6824 101.951 39.6159 102.361 39.6159C102.745 39.6159 103.088 39.6716 103.39 39.783C103.695 39.8944 103.952 40.0489 104.161 40.2465C104.366 40.4442 104.522 40.6813 104.63 40.958C104.737 41.2311 104.791 41.5329 104.791 41.8635C104.791 42.1115 104.75 42.3522 104.667 42.5858C104.588 42.8157 104.479 43.0439 104.339 43.2703C104.195 43.4967 104.024 43.7248 103.827 43.9548C103.633 44.1848 103.421 44.4219 103.191 44.6663L101.444 46.5312H105.099V47.5714ZM112.072 44.7741H113.058V45.8197H112.072V47.5714H110.784V45.8197H107.388L107.356 45.0274L110.746 39.7237H112.072V44.7741ZM108.671 44.7741H110.784V41.4485L110.633 41.7288L108.671 44.7741Z" fill="#FAFAFA"/>
<path d="M63.5929 4.46891H64.7167C66.008 4.46891 66.2194 4.49605 66.6769 4.72032C67.34 5.04565 67.8243 5.68989 68.2471 6.80801C68.4192 7.26333 68.4167 7.2619 68.7992 7.14548L69.0531 7.06834L69.0299 5.42027C69.0171 4.51391 68.9963 3.7079 68.9835 3.62934L68.9603 3.48649L64.0332 3.4765C61.3234 3.47078 59.0532 3.47578 58.9886 3.48721L58.8711 3.50828L58.8815 3.80111L58.8918 4.09394L59.2668 4.13894C59.7535 4.19715 60.0442 4.33393 60.2167 4.58533C60.6056 5.15243 60.6759 5.92415 60.6752 9.5935C60.6745 13.5007 60.5931 14.4495 60.2174 14.9423C60.0235 15.1966 59.8664 15.2798 59.4275 15.3612C58.855 15.4673 58.874 15.4541 58.874 15.7501C58.874 15.9148 58.8889 16.004 58.9186 16.0158C58.9829 16.0419 65.2852 16.0437 65.3527 16.018C65.4391 15.9848 65.4338 15.5191 65.3466 15.4741C65.3124 15.4562 65.0995 15.4141 64.8735 15.3802C64.6478 15.3462 64.3985 15.2905 64.3196 15.2562C63.9071 15.0766 63.6771 14.5795 63.5911 13.6807C63.5293 13.0357 63.4807 11.8476 63.4807 10.9691V10.1631L63.8646 10.1749C64.682 10.1999 65.1049 10.2427 65.2756 10.3181C65.6455 10.4816 65.9448 10.938 66.1001 11.5755L66.183 11.9147L66.4748 11.9251L66.7665 11.9354V7.64437L66.4751 7.65473L66.1837 7.66508L66.0984 8.00398C65.9334 8.66071 65.6641 9.0639 65.2681 9.24745C65.107 9.32209 64.9924 9.34244 64.6074 9.36566C64.3514 9.38101 63.9928 9.39423 63.8114 9.3953L63.4811 9.39708V8.33467C63.4804 7.26976 63.5375 5.00816 63.5739 4.6564L63.5932 4.46891H63.5929Z" fill="#FAFAFA"/>
<path d="M76.4824 10.7727C76.2957 9.18788 75.6236 8.02797 74.5147 7.37517C73.2823 6.64987 71.4096 6.60773 70.079 7.27589C69.118 7.75835 68.3331 8.6872 67.9846 9.75461C67.6249 10.856 67.6249 12.3012 67.9846 13.4254C68.2152 14.1453 68.5281 14.671 69.0102 15.1488C69.5887 15.7216 70.3458 16.0884 71.2118 16.2144C71.5218 16.2594 72.4999 16.2605 72.8206 16.2159C72.972 16.1948 73.2345 16.1377 73.4034 16.0884C74.9733 15.6338 76.0446 14.4274 76.4124 12.7008C76.5024 12.2791 76.5392 11.257 76.4824 10.7731V10.7727ZM73.7991 12.6758C73.6812 14.3425 73.3195 15.2463 72.6449 15.5602C72.4003 15.6741 71.9678 15.6802 71.7314 15.5727C71.1447 15.3067 70.729 14.4978 70.5204 13.2179C70.3883 12.4065 70.3758 10.6024 70.4961 9.71819C70.6654 8.4765 71.0225 7.74335 71.5789 7.49551C71.9603 7.32553 72.4885 7.42623 72.8284 7.73299C73.583 8.41472 73.9637 10.3531 73.7994 12.6754L73.7991 12.6758Z" fill="#FAFAFA"/>
<path d="M82.9246 6.79016C82.5096 6.79016 82.2857 6.83623 81.9497 6.99015C81.3379 7.27048 80.8776 7.72973 80.4673 8.46967L80.3391 8.70072L80.3555 8.29004C80.3644 8.06434 80.3798 7.64223 80.3894 7.35262L80.4066 6.82587H80.3184C80.2055 6.82587 76.6676 7.53296 76.5608 7.57688C76.4912 7.60545 76.4805 7.63616 76.4805 7.80651C76.4805 7.97685 76.4894 8.0047 76.5608 8.0197C76.6051 8.02899 76.7676 8.06077 76.9219 8.09041C77.2347 8.15041 77.3275 8.19897 77.4568 8.36968C77.6947 8.68465 77.7436 9.24032 77.7411 11.5933C77.7389 13.5171 77.6989 14.4752 77.6079 14.7749C77.4961 15.1423 77.2972 15.3302 76.9515 15.3948C76.8397 15.4155 76.6922 15.4448 76.6233 15.4595L76.4983 15.4862L76.4876 15.733C76.4801 15.9062 76.4908 15.9887 76.5233 16.0094C76.5487 16.0258 77.7589 16.0351 79.2124 16.0305L81.855 16.0219L81.8654 15.7451C81.8711 15.593 81.8632 15.4684 81.8475 15.4684C81.6422 15.4684 81.0133 15.382 80.9137 15.3405C80.6155 15.2159 80.4712 14.9488 80.4091 14.4056C80.3359 13.7682 80.2927 12.1833 80.313 10.8838C80.3334 9.57172 80.3337 9.56636 80.4155 9.47851C80.6069 9.27317 81.0922 9.11319 81.5265 9.11211C81.875 9.1114 82.2343 9.20104 82.6171 9.38495C82.8007 9.47316 82.9699 9.53779 82.9932 9.52887C83.041 9.51065 83.9081 7.21941 83.9081 7.11156C83.9081 6.95086 83.416 6.79052 82.9239 6.79052L82.9246 6.79016Z" fill="#FAFAFA"/>
<path d="M89.7347 6.98087C89.5244 6.9373 89.3344 6.92837 88.9241 6.94266C88.3081 6.96409 87.8842 7.05622 87.4239 7.26906C87.2714 7.33941 87.1378 7.39726 87.1278 7.39726C87.1178 7.39726 87.1192 6.4652 87.1314 5.32601C87.1485 3.72078 87.1439 3.25475 87.1103 3.25403C86.9942 3.25225 83.347 3.9479 83.307 3.97969C83.277 4.00326 83.2645 4.08039 83.2713 4.19753C83.2831 4.40037 83.2592 4.3843 83.7038 4.48429C83.8377 4.51429 83.9941 4.5725 84.052 4.61356C84.2005 4.71927 84.3237 4.94782 84.4091 5.27601C84.4766 5.53492 84.4855 5.7199 84.5169 7.46904C84.5487 9.25497 84.5427 11.0912 84.4934 14.4549L84.473 15.8519L84.7348 15.9116C85.113 15.9976 86.1957 16.1776 86.55 16.2137C87.0696 16.2665 88.2809 16.259 88.6666 16.2008C90.3415 15.9484 91.6039 14.977 92.192 13.4882C92.3481 13.0936 92.4977 12.4854 92.5502 12.0344C92.612 11.5048 92.5774 10.4477 92.4845 10.0224C92.1288 8.39183 91.1107 7.26585 89.7351 6.98123L89.7347 6.98087ZM89.8233 12.6276C89.659 13.6682 89.3605 14.471 88.9444 14.9899C88.7427 15.2413 88.4081 15.4791 88.1463 15.557C87.9774 15.607 87.6153 15.6191 87.2931 15.5848C87.221 15.5773 87.1439 15.5491 87.1217 15.5223C87.0607 15.4484 86.9942 10.6009 87.035 9.18248L87.0675 8.05757L87.3531 7.97507C87.7745 7.85366 88.2284 7.87258 88.5502 8.02507C89.1962 8.33112 89.6205 9.08748 89.8412 10.3252C89.9129 10.7284 89.9022 12.1287 89.8237 12.6272L89.8233 12.6276Z" fill="#FAFAFA"/>
<path d="M99.3089 7.15196C98.3283 6.66057 96.8131 6.69592 95.7046 7.23624C94.6547 7.74798 93.9319 8.6022 93.5283 9.80745C93.3184 10.4353 93.2519 10.9402 93.2734 11.7544C93.2866 12.269 93.3101 12.5347 93.3633 12.7726C93.7772 14.6203 95.0443 15.8766 96.8159 16.1962C97.2059 16.2666 98.0915 16.268 98.4858 16.1991C99.0486 16.1005 99.6978 15.8502 100.107 15.5738C100.607 15.2363 101.119 14.7288 101.119 14.5714C101.119 14.4753 100.947 14.2542 100.873 14.2542C100.84 14.2542 100.701 14.3267 100.565 14.4153C100.076 14.7313 99.6086 14.861 98.9586 14.861C98.0622 14.861 97.4941 14.6378 96.9231 14.061C96.6702 13.8057 96.5663 13.6679 96.4356 13.415C96.1478 12.8586 95.9924 12.219 95.9692 11.4959L95.9592 11.1838L98.6018 11.1745L101.244 11.1652L101.256 10.9866C101.263 10.8884 101.25 10.6313 101.228 10.4153C101.063 8.81039 100.413 7.70548 99.3089 7.15231V7.15196ZM98.259 10.446C97.5134 10.4874 95.9124 10.5085 95.8931 10.477C95.8664 10.4335 95.9328 9.79781 95.9988 9.46855C96.1578 8.67505 96.4124 8.10188 96.7627 7.74905C96.9513 7.55907 97.037 7.50014 97.1909 7.45443C97.2966 7.42301 97.4162 7.39729 97.4569 7.39765C97.6209 7.39801 97.8141 7.48157 97.958 7.61442C98.3444 7.97046 98.5651 8.73504 98.609 9.86674L98.6308 10.4253L98.2594 10.446H98.259Z" fill="#FAFAFA"/>
<path d="M106.299 10.5413C105.354 10.146 104.879 9.87242 104.589 9.55531C104.354 9.29819 104.285 9.08999 104.308 8.70538C104.329 8.35041 104.416 8.13864 104.639 7.9008C104.924 7.59547 105.317 7.48869 105.787 7.58797C106.559 7.75117 107.054 8.28541 107.48 9.41496C107.632 9.81779 107.65 9.83064 107.924 9.72922L108.097 9.66494L108.091 9.20069C108.087 8.94536 108.074 8.40933 108.062 8.00936L108.039 7.28228L107.91 7.22764C107.204 6.92874 105.857 6.74268 104.98 6.82267C103.983 6.91374 103.252 7.22978 102.689 7.81366C102.129 8.39362 101.876 9.07428 101.921 9.88135C101.958 10.5495 102.155 11.0291 102.567 11.4505C102.949 11.8412 103.269 12.0258 104.188 12.3847C105.671 12.964 106.064 13.3071 106.06 14.0214C106.058 14.6245 105.738 15.0659 105.155 15.2716C104.947 15.3452 104.419 15.3445 104.138 15.2702C103.401 15.0759 102.837 14.4374 102.356 13.2532L102.233 12.9497L102.088 12.9565C102.009 12.96 101.899 12.9843 101.845 13.0104L101.746 13.0575L101.755 13.575C101.76 13.8596 101.775 14.4595 101.787 14.9081L101.81 15.7241L101.974 15.7948C102.311 15.9398 103.324 16.1616 103.96 16.2298C104.039 16.2383 104.473 16.2412 104.924 16.2362C105.708 16.2276 105.765 16.2223 106.159 16.1194C107.323 15.8155 108.076 15.167 108.41 14.1821C108.512 13.88 108.527 13.7875 108.541 13.3375C108.561 12.7379 108.506 12.4265 108.311 12.0362C108.01 11.4355 107.457 11.0248 106.299 10.5406V10.5413Z" fill="#FAFAFA"/>
<path d="M330.578 7.38569C330.578 6.66226 330.803 6.4128 331.177 6.4128C331.551 6.4128 331.85 6.56248 332.199 7.38569L334.32 12.2002V15.2436C334.32 15.967 334.021 16.1666 333.197 16.2664V16.4659H337.114V16.2664C336.266 16.1666 335.991 15.9421 335.991 15.2436V12.2002L338.037 7.56031C338.436 6.66226 338.835 6.4627 339.434 6.36291V6.16335H336.565V6.36291C337.538 6.4627 337.887 6.7371 337.613 7.38569L335.817 11.5017L333.971 7.28591C333.721 6.71215 333.871 6.53753 334.943 6.38786V6.18829H328.782V6.38786C329.755 6.53753 330.054 6.71215 330.054 7.41063V13.0484L325.539 6.18829H323.319V6.38786C324.042 6.48764 324.267 6.71215 324.267 7.41063V15.2685C324.267 15.992 324.067 16.2414 323.818 16.2414C323.593 16.2414 323.468 16.1417 323.144 15.2685L319.801 6.1384H319.602L316.384 14.8694C316.035 15.8423 315.486 16.1666 314.937 16.2913V16.4909H317.881V16.2913C316.858 16.1915 316.534 15.7924 316.758 15.1438L317.481 13.1482H320.525L321.223 15.0191C321.523 15.8672 321.348 16.1167 320.475 16.2664V16.4659H326.063V16.2664C325.09 16.1167 324.791 15.9421 324.791 15.2436V8.2089L330.254 16.4909H330.578V7.38569ZM291.189 11.3022C291.189 8.10912 292.71 6.43775 294.481 6.43775C295.529 6.43775 296.203 6.66226 296.602 7.08634C296.901 7.38569 297.126 7.80977 297.375 8.4833H297.575V6.33797C296.552 6.1384 295.629 6.01367 294.706 6.01367C292.037 6.01367 289.268 7.73493 289.268 11.3022C289.268 14.8694 292.037 16.5907 294.531 16.5907C295.629 16.5907 296.602 16.4161 297.525 16.1417L297.824 14.121L297.65 14.0712C297.425 14.4952 297.151 14.8694 296.851 15.1937C296.203 15.8423 295.33 16.1915 294.457 16.1915C292.76 16.1666 291.189 14.5451 291.189 11.3022ZM313.316 11.6015C313.091 11.6015 312.792 11.5766 312.492 11.5267V6.53753H313.316C314.688 6.53753 315.286 7.26096 315.286 9.05705C315.286 10.8531 314.663 11.6015 313.316 11.6015ZM281.26 6.16335V8.63298H281.46C281.759 7.06139 282.383 6.56248 283.431 6.56248H283.929V15.2436C283.929 15.967 283.63 16.1666 282.807 16.2664V16.4659H286.723V16.2664C285.875 16.1666 285.601 15.9421 285.601 15.2436V6.53753H286.1C287.147 6.53753 287.771 7.03645 288.07 8.60803H288.27V6.1384H281.26V6.16335ZM278.142 16.5907C279.838 16.5907 281.634 15.6178 281.634 13.6221C281.634 12.4497 281.011 11.4768 279.913 10.8781L277.967 9.80543C276.945 9.23167 276.645 8.70781 276.645 7.95944C276.645 7.11129 277.269 6.43775 278.441 6.43775C279.015 6.43775 279.439 6.58742 279.788 6.91172C280.088 7.21107 280.387 7.70998 280.662 8.60803H280.836V6.33797C280.138 6.1384 279.414 6.01367 278.566 6.01367C276.895 6.01367 275.647 7.06139 275.647 8.83254C275.647 9.9551 276.271 10.9779 277.294 11.5766L279.09 12.5744C280.113 13.1482 280.437 13.697 280.437 14.5202C280.437 15.4931 279.439 16.1915 278.342 16.1915C277.618 16.1915 277.019 15.9421 276.595 15.518C276.321 15.2436 276.022 14.8195 275.822 14.2707H276.995V14.0712C276.67 13.9963 276.471 13.9464 276.196 13.2978L273.901 7.83471H273.702L271.457 13.1731C271.157 13.8965 270.958 14.0213 270.608 14.0712V14.2707H272.604V14.0712C271.881 13.9963 271.681 13.6471 271.856 13.1981L272.205 12.3499H274.226L274.675 13.3976C274.874 13.8716 274.575 13.9963 273.851 14.0462V14.2458H275.448V16.2165C276.246 16.441 277.269 16.5907 278.142 16.5907ZM303.487 16.4909L306.455 8.23384L306.68 15.2685C306.705 15.967 306.431 16.1666 305.582 16.2664V16.4659H313.765V16.2664C312.792 16.1167 312.492 15.9421 312.492 15.2436V11.9258C312.817 11.9757 313.141 12.0007 313.39 12.0007C315.361 12.0007 317.057 11.2772 317.057 9.082C317.057 6.88677 315.361 6.16335 313.39 6.16335H309.873V6.36291C310.596 6.4627 310.821 6.68721 310.821 7.38569V15.2436C310.821 15.967 310.522 16.2664 309.698 16.2664H309.673C308.8 16.2664 308.426 15.9421 308.401 15.2685L308.102 7.41063C308.077 6.68721 308.326 6.4627 309.1 6.36291V6.16335H306.68L304.036 13.5722L301.391 6.16335H298.797V6.36291C299.57 6.4627 299.82 6.71215 299.795 7.41063L299.521 14.9443C299.496 15.6926 299.096 16.1417 298.373 16.2664V16.4659H301.117V16.2664C300.419 16.1666 300.019 15.7176 300.044 14.9443L300.269 8.08417L303.287 16.4659L303.487 16.4909ZM295.529 14.3206C296.851 14.3206 298.548 13.1482 298.548 11.3022C298.548 9.45619 296.876 8.28374 295.529 8.28374C294.182 8.28374 292.511 9.45619 292.511 11.3022C292.511 13.1232 294.182 14.3206 295.529 14.3206ZM295.529 8.70781C296.377 8.70781 296.951 9.4063 296.951 11.3022C296.951 13.1981 296.352 13.8965 295.529 13.8965C294.706 13.8965 294.107 13.1981 294.107 11.3022C294.107 9.4063 294.681 8.70781 295.529 8.70781ZM320.4 12.7241H317.631L319.003 8.93233L320.4 12.7241ZM274.101 11.9508H272.404L273.253 9.88026L274.101 11.9508ZM270.858 12.4746H271.057V9.38135H270.858C270.534 10.479 270.209 10.7284 269.611 10.7284H268.463V6.53753H270.284C271.332 6.53753 271.955 7.03645 272.255 8.60803H272.454V6.1384H265.844V6.33797C266.567 6.43775 266.792 6.66226 266.792 7.36074V15.2187C266.792 15.9421 266.567 16.1417 265.844 16.2414V16.441H269.735V16.2414C268.762 16.0918 268.463 15.9171 268.463 15.2187V11.1026H269.611C270.184 11.1276 270.534 11.377 270.858 12.4746Z" fill="#FAFAFA"/>
<path d="M230.317 55.9012C231.615 53.1371 231.783 48.3293 228.231 44.0911C225.718 46.3861 225.501 51.8388 230.317 55.9012ZM223.918 10.7464C227.067 10.026 230.275 6.3071 230.024 0C227.31 0.427174 222.41 4.07909 223.918 10.7464ZM223.8 46.897C226.053 44.602 227.251 40.7909 225.811 36.159C223.03 37.1893 220.911 41.5699 223.8 46.897ZM225.166 27.2386C222.678 27.4648 219.277 30.5555 220.433 36.5611C222.494 35.5811 225.383 32.6662 225.166 27.2386ZM227.209 18.6533C224.512 18.5276 220.994 21.476 221.003 27.2051C223.918 26.4513 226.707 23.6537 227.209 18.6533ZM228.189 11.6677C226.33 11.2992 222.536 12.4634 221.815 17.9832C224.269 17.9162 227.335 16.1572 228.189 11.6677ZM230.007 56.5042C227.452 53.1538 223.105 48.4884 218.909 49.0161C221.011 55.6248 226.506 57.9198 230.007 56.5042ZM214.386 36.9966C214.26 43.823 218.867 47.9943 222.938 47.299C221.43 43.3288 218.557 37.474 214.386 36.9966ZM218.724 36.7202C219.043 36.871 219.378 36.9799 219.713 37.0553C219.42 33.1604 218.364 27.5569 214.712 26.0995C213.598 30.5974 214.93 35.0618 218.724 36.7202ZM219.838 26.5518C220.174 22.9753 219.738 17.9664 216.597 16.3331C214.779 21.4592 216.907 25.4797 219.838 26.5518ZM221.246 17.69C222.41 14.3396 222.963 9.63235 220.174 7.47973C217.133 12.4886 219.294 16.4085 221.246 17.69Z" fill="#FAFAFA"/>
<path d="M374.015 55.9012C372.717 53.1371 372.549 48.3293 376.101 44.0911C378.614 46.3861 378.831 51.8388 374.015 55.9012ZM380.414 10.7464C377.265 10.026 374.057 6.3071 374.308 0C377.022 0.427174 381.922 4.07909 380.414 10.7464ZM380.532 46.897C378.279 44.602 377.081 40.7909 378.521 36.159C381.302 37.1893 383.421 41.5699 380.532 46.897ZM379.166 27.2386C381.654 27.4648 385.055 30.5555 383.899 36.5611C381.838 35.5811 378.949 32.6662 379.166 27.2386ZM377.123 18.6533C379.82 18.5276 383.338 21.476 383.329 27.2051C380.414 26.4513 377.625 23.6537 377.123 18.6533ZM376.143 11.6677C378.002 11.2992 381.796 12.4634 382.517 17.9832C380.063 17.9162 376.997 16.1572 376.143 11.6677ZM374.325 56.5042C376.88 53.1538 381.227 48.4884 385.423 49.0161C383.321 55.6248 377.826 57.9198 374.325 56.5042ZM389.946 36.9966C390.072 43.823 385.465 47.9943 381.394 47.299C382.902 43.3288 385.775 37.474 389.946 36.9966ZM385.608 36.7202C385.289 36.871 384.954 36.9799 384.619 37.0553C384.912 33.1604 385.968 27.5569 389.62 26.0995C390.734 30.5974 389.402 35.0618 385.608 36.7202ZM384.494 26.5518C384.159 22.9753 384.594 17.9664 387.735 16.3331C389.553 21.4592 387.425 25.4797 384.494 26.5518ZM383.086 17.69C381.922 14.3396 381.369 9.63235 384.159 7.47973C387.199 12.4886 385.038 16.4085 383.086 17.69Z" fill="#FAFAFA"/>
<path d="M247.53 25.7239L248.5 29.0818L249.573 25.7239H251.184V33.5715H249.966V30.9089L250.042 27.4055L248.834 31.1515H248.16L247.066 27.5349L247.136 30.9089V33.5715H245.924V25.7239H247.53ZM259.047 30.1705C259.047 30.4867 259.018 30.7921 258.961 31.0868C258.907 31.3814 258.828 31.6599 258.724 31.9222C258.612 32.1845 258.474 32.4271 258.309 32.6499C258.143 32.8691 257.953 33.0577 257.737 33.2158C257.529 33.3595 257.297 33.4727 257.042 33.5554C256.79 33.638 256.514 33.6793 256.212 33.6793C255.899 33.6793 255.612 33.6362 255.35 33.55C255.091 33.4601 254.859 33.338 254.654 33.1835C254.446 33.0254 254.263 32.8349 254.104 32.6121C253.95 32.3894 253.821 32.145 253.716 31.8791C253.616 31.624 253.54 31.3527 253.49 31.0652C253.44 30.7742 253.415 30.4759 253.415 30.1705V29.1357C253.415 28.8159 253.441 28.5068 253.495 28.2086C253.549 27.9104 253.63 27.6283 253.738 27.3624C253.842 27.1073 253.97 26.8737 254.121 26.6617C254.275 26.4461 254.457 26.2592 254.665 26.1011C254.866 25.9466 255.094 25.8281 255.35 25.7454C255.608 25.6592 255.892 25.6161 256.201 25.6161C256.514 25.6161 256.801 25.6592 257.063 25.7454C257.326 25.8316 257.561 25.952 257.77 26.1065C257.978 26.261 258.159 26.4425 258.314 26.6509C258.468 26.8593 258.598 27.0875 258.702 27.3354C258.817 27.6013 258.903 27.887 258.961 28.1924C259.018 28.4943 259.047 28.8087 259.047 29.1357V30.1705ZM257.743 29.1249C257.739 28.9272 257.726 28.7332 257.705 28.5428C257.687 28.3523 257.655 28.1709 257.608 27.9984C257.554 27.8008 257.482 27.6211 257.392 27.4594C257.306 27.2941 257.2 27.154 257.074 27.039C256.963 26.9384 256.835 26.8593 256.692 26.8018C256.548 26.7443 256.384 26.7156 256.201 26.7156C256.025 26.7156 255.867 26.7443 255.727 26.8018C255.587 26.8557 255.464 26.9312 255.36 27.0282C255.235 27.1468 255.129 27.2887 255.042 27.454C254.956 27.6157 254.89 27.7972 254.843 27.9984C254.8 28.1709 254.767 28.3541 254.746 28.5482C254.728 28.7386 254.719 28.9308 254.719 29.1249V30.1705C254.719 30.361 254.728 30.5496 254.746 30.7365C254.764 30.9233 254.794 31.103 254.837 31.2754C254.884 31.4695 254.947 31.6509 255.026 31.8198C255.109 31.9851 255.208 32.1252 255.323 32.2402C255.434 32.348 255.562 32.4343 255.705 32.4989C255.853 32.56 256.021 32.5906 256.212 32.5906C256.395 32.5906 256.56 32.56 256.708 32.4989C256.859 32.4379 256.988 32.3552 257.096 32.251C257.222 32.1324 257.326 31.9923 257.408 31.8306C257.495 31.6653 257.563 31.4838 257.613 31.2862C257.656 31.1137 257.687 30.9341 257.705 30.7472C257.726 30.5568 257.739 30.3645 257.743 30.1705V29.1249ZM265.551 31.5503C265.551 31.3671 265.514 31.2054 265.438 31.0652C265.363 30.9251 265.257 30.7993 265.12 30.6879C264.977 30.5837 264.806 30.4903 264.608 30.4077C264.414 30.3214 264.197 30.2442 263.956 30.1759C263.586 30.0717 263.245 29.9441 262.932 29.7932C262.623 29.6387 262.359 29.4662 262.14 29.2758C261.921 29.0818 261.748 28.8626 261.622 28.6182C261.5 28.3703 261.439 28.0918 261.439 27.7828C261.439 27.4486 261.511 27.1486 261.655 26.8827C261.798 26.6132 261.992 26.3832 262.237 26.1928C262.481 26.0059 262.765 25.864 263.088 25.767C263.415 25.6664 263.758 25.6161 264.118 25.6161C264.499 25.6161 264.853 25.6753 265.18 25.7939C265.51 25.9089 265.798 26.0706 266.042 26.279C266.286 26.491 266.479 26.7443 266.619 27.039C266.762 27.33 266.834 27.6534 266.834 28.0092H265.551C265.534 27.8115 265.49 27.6319 265.422 27.4702C265.357 27.3049 265.266 27.163 265.147 27.0444C265.025 26.9294 264.876 26.8396 264.7 26.7749C264.527 26.7066 264.328 26.6725 264.102 26.6725C263.904 26.6725 263.721 26.6994 263.552 26.7533C263.387 26.8036 263.243 26.8755 263.121 26.9689C262.998 27.0659 262.903 27.1827 262.835 27.3193C262.767 27.4558 262.733 27.6085 262.733 27.7774C262.736 27.9571 262.783 28.1152 262.873 28.2517C262.963 28.3847 263.083 28.5014 263.234 28.6021C263.388 28.7027 263.564 28.7907 263.762 28.8662C263.963 28.9416 264.173 29.0117 264.393 29.0764C264.669 29.1554 264.939 29.2542 265.201 29.3728C265.467 29.4878 265.711 29.6279 265.934 29.7932C266.211 30.0016 266.432 30.2514 266.597 30.5424C266.766 30.8299 266.85 31.1623 266.85 31.5395C266.85 31.8881 266.777 32.1953 266.629 32.4612C266.486 32.7271 266.292 32.9481 266.047 33.1242C265.799 33.3074 265.512 33.4458 265.185 33.5392C264.858 33.629 264.513 33.6739 264.15 33.6739C263.766 33.6739 263.387 33.6147 263.013 33.4961C262.639 33.3739 262.314 33.1978 262.037 32.9679C261.782 32.7523 261.579 32.4989 261.428 32.2079C261.281 31.9168 261.205 31.5827 261.202 31.2054H262.495C262.513 31.4461 262.564 31.6563 262.646 31.836C262.733 32.0121 262.849 32.1576 262.997 32.2726C263.14 32.3911 263.309 32.4792 263.503 32.5367C263.701 32.5942 263.917 32.6229 264.15 32.6229C264.348 32.6229 264.531 32.5996 264.7 32.5528C264.872 32.5061 265.021 32.4361 265.147 32.3426C265.269 32.2528 265.366 32.1414 265.438 32.0085C265.514 31.8755 265.551 31.7228 265.551 31.5503ZM274.762 26.7964H272.342V33.5715H271.053V26.7964H268.65V25.7239H274.762V26.7964ZM284.855 25.7239H289.479V26.7964H287.803V32.5043H289.479V33.5715H284.855V32.5043H286.493V26.7964H284.855V25.7239ZM297.461 33.5715H296.162L293.612 28.1709L293.607 33.5715H292.297V25.7239H293.612L296.146 31.103L296.156 25.7239H297.461V33.5715ZM305.194 33.5715H303.895L301.346 28.1709L301.34 33.5715H300.031V25.7239H301.346L303.879 31.103L303.89 25.7239H305.194V33.5715ZM313.181 30.1705C313.181 30.4867 313.152 30.7921 313.095 31.0868C313.041 31.3814 312.962 31.6599 312.857 31.9222C312.746 32.1845 312.608 32.4271 312.442 32.6499C312.277 32.8691 312.087 33.0577 311.871 33.2158C311.663 33.3595 311.431 33.4727 311.176 33.5554C310.924 33.638 310.648 33.6793 310.346 33.6793C310.033 33.6793 309.746 33.6362 309.483 33.55C309.225 33.4601 308.993 33.338 308.788 33.1835C308.58 33.0254 308.396 32.8349 308.238 32.6121C308.084 32.3894 307.954 32.145 307.85 31.8791C307.75 31.624 307.674 31.3527 307.624 31.0652C307.574 30.7742 307.548 30.4759 307.548 30.1705V29.1357C307.548 28.8159 307.575 28.5068 307.629 28.2086C307.683 27.9104 307.764 27.6283 307.872 27.3624C307.976 27.1073 308.104 26.8737 308.255 26.6617C308.409 26.4461 308.59 26.2592 308.799 26.1011C309 25.9466 309.228 25.8281 309.483 25.7454C309.742 25.6592 310.026 25.6161 310.335 25.6161C310.648 25.6161 310.935 25.6592 311.197 25.7454C311.46 25.8316 311.695 25.952 311.903 26.1065C312.112 26.261 312.293 26.4425 312.448 26.6509C312.602 26.8593 312.732 27.0875 312.836 27.3354C312.951 27.6013 313.037 27.887 313.095 28.1924C313.152 28.4943 313.181 28.8087 313.181 29.1357V30.1705ZM311.877 29.1249C311.873 28.9272 311.86 28.7332 311.839 28.5428C311.821 28.3523 311.788 28.1709 311.742 27.9984C311.688 27.8008 311.616 27.6211 311.526 27.4594C311.44 27.2941 311.334 27.154 311.208 27.039C311.097 26.9384 310.969 26.8593 310.826 26.8018C310.682 26.7443 310.518 26.7156 310.335 26.7156C310.159 26.7156 310.001 26.7443 309.861 26.8018C309.721 26.8557 309.598 26.9312 309.494 27.0282C309.368 27.1468 309.262 27.2887 309.176 27.454C309.09 27.6157 309.023 27.7972 308.977 27.9984C308.934 28.1709 308.901 28.3541 308.88 28.5482C308.862 28.7386 308.853 28.9308 308.853 29.1249V30.1705C308.853 30.361 308.862 30.5496 308.88 30.7365C308.898 30.9233 308.928 31.103 308.971 31.2754C309.018 31.4695 309.081 31.6509 309.16 31.8198C309.243 31.9851 309.341 32.1252 309.456 32.2402C309.568 32.348 309.695 32.4343 309.839 32.4989C309.986 32.56 310.155 32.5906 310.346 32.5906C310.529 32.5906 310.694 32.56 310.842 32.4989C310.993 32.4379 311.122 32.3552 311.23 32.251C311.356 32.1324 311.46 31.9923 311.542 31.8306C311.629 31.6653 311.697 31.4838 311.747 31.2862C311.79 31.1137 311.821 30.9341 311.839 30.7472C311.86 30.5568 311.873 30.3645 311.877 30.1705V29.1249ZM317.465 33.5715L315.05 25.7239H316.468L317.961 31.1569L318.09 31.6258L318.225 31.1515L319.729 25.7239H321.141L318.726 33.5715H317.465ZM327.139 31.7659H324.675L324.142 33.5715H322.794L325.349 25.7239H326.497L329.009 33.5715H327.667L327.139 31.7659ZM325.004 30.6556H326.821L325.92 27.551L325.004 30.6556ZM336.629 26.7964H334.209V33.5715H332.921V26.7964H330.517V25.7239H336.629V26.7964ZM338.989 25.7239H343.613V26.7964H341.937V32.5043H343.613V33.5715H338.989V32.5043H340.627V26.7964H338.989V25.7239ZM348.398 33.5715L345.984 25.7239H347.401L348.894 31.1569L349.024 31.6258L349.158 31.1515L350.662 25.7239H352.074L349.66 33.5715H348.398ZM358.875 30.0519H355.631V32.5043H359.42V33.5715H354.332V25.7239H359.393V26.7964H355.631V29.0063H358.875V30.0519ZM255.159 45.1569C255.123 45.5377 255.033 45.8845 254.889 46.1971C254.745 46.5061 254.557 46.7702 254.323 46.9894C254.086 47.2122 253.804 47.3847 253.477 47.5069C253.154 47.6254 252.794 47.6847 252.399 47.6847C252.076 47.6847 251.777 47.6416 251.504 47.5554C251.235 47.4655 250.994 47.3398 250.782 47.1781C250.577 47.0272 250.398 46.8457 250.243 46.6337C250.092 46.4181 249.965 46.1827 249.86 45.9276C249.756 45.6761 249.677 45.403 249.623 45.1084C249.573 44.8137 249.548 44.5065 249.548 44.1867V43.1141C249.548 42.8087 249.573 42.514 249.623 42.2302C249.674 41.9463 249.749 41.6786 249.85 41.4271C249.957 41.1468 250.096 40.8935 250.265 40.6671C250.437 40.4371 250.635 40.2413 250.858 40.0796C251.07 39.9323 251.303 39.8173 251.558 39.7346C251.817 39.652 252.099 39.6107 252.404 39.6107C252.818 39.6107 253.186 39.6717 253.509 39.7939C253.836 39.9161 254.115 40.0886 254.345 40.3113C254.578 40.5377 254.762 40.8108 254.895 41.1306C255.031 41.4504 255.119 41.8061 255.159 42.1978H253.865C253.844 41.9642 253.799 41.754 253.73 41.5672C253.666 41.3768 253.576 41.2151 253.461 41.0821C253.342 40.9492 253.197 40.8485 253.024 40.7803C252.852 40.7084 252.645 40.6725 252.404 40.6725C252.236 40.6725 252.083 40.6958 251.946 40.7425C251.813 40.7893 251.695 40.8557 251.591 40.942C251.447 41.0462 251.326 41.1827 251.229 41.3516C251.136 41.5169 251.059 41.7019 250.998 41.9068C250.951 42.0864 250.915 42.2787 250.89 42.4835C250.868 42.6847 250.858 42.8913 250.858 43.1033V44.1867C250.858 44.449 250.872 44.6951 250.901 44.9251C250.933 45.1551 250.982 45.3653 251.046 45.5557C251.097 45.7138 251.159 45.8575 251.235 45.9869C251.314 46.1163 251.407 46.2277 251.515 46.3211C251.627 46.4217 251.754 46.4989 251.898 46.5528C252.045 46.6031 252.212 46.6283 252.399 46.6283C252.622 46.6283 252.819 46.596 252.992 46.5313C253.164 46.4666 253.312 46.3714 253.434 46.2456C253.553 46.1234 253.648 45.9707 253.72 45.7875C253.791 45.6042 253.838 45.394 253.86 45.1569H255.159ZM262.914 44.1705C262.914 44.4867 262.885 44.7921 262.827 45.0868C262.774 45.3814 262.694 45.6599 262.59 45.9222C262.479 46.1845 262.341 46.4271 262.175 46.6499C262.01 46.8691 261.82 47.0577 261.604 47.2158C261.396 47.3595 261.164 47.4727 260.909 47.5554C260.657 47.638 260.38 47.6793 260.079 47.6793C259.766 47.6793 259.479 47.6362 259.216 47.55C258.958 47.4601 258.726 47.338 258.521 47.1835C258.313 47.0254 258.129 46.8349 257.971 46.6121C257.817 46.3894 257.687 46.145 257.583 45.8791C257.482 45.624 257.407 45.3527 257.357 45.0652C257.306 44.7742 257.281 44.4759 257.281 44.1705V43.1357C257.281 42.8159 257.308 42.5068 257.362 42.2086C257.416 41.9104 257.497 41.6283 257.605 41.3624C257.709 41.1073 257.836 40.8737 257.987 40.6617C258.142 40.4461 258.323 40.2592 258.532 40.1011C258.733 39.9466 258.961 39.8281 259.216 39.7454C259.475 39.6592 259.759 39.6161 260.068 39.6161C260.38 39.6161 260.668 39.6592 260.93 39.7454C261.193 39.8316 261.428 39.952 261.636 40.1065C261.845 40.261 262.026 40.4425 262.181 40.6509C262.335 40.8593 262.465 41.0875 262.569 41.3354C262.684 41.6013 262.77 41.887 262.827 42.1924C262.885 42.4943 262.914 42.8087 262.914 43.1357V44.1705ZM261.609 43.1249C261.606 42.9272 261.593 42.7332 261.572 42.5428C261.554 42.3523 261.521 42.1709 261.475 41.9984C261.421 41.8008 261.349 41.6211 261.259 41.4594C261.173 41.2941 261.067 41.154 260.941 41.039C260.83 40.9384 260.702 40.8593 260.558 40.8018C260.415 40.7443 260.251 40.7156 260.068 40.7156C259.892 40.7156 259.734 40.7443 259.594 40.8018C259.453 40.8557 259.331 40.9312 259.227 41.0282C259.101 41.1468 258.995 41.2887 258.909 41.454C258.823 41.6157 258.756 41.7972 258.71 41.9984C258.666 42.1709 258.634 42.3541 258.613 42.5482C258.595 42.7386 258.586 42.9308 258.586 43.1249V44.1705C258.586 44.361 258.595 44.5496 258.613 44.7365C258.631 44.9233 258.661 45.103 258.704 45.2754C258.751 45.4695 258.814 45.6509 258.893 45.8198C258.975 45.9851 259.074 46.1252 259.189 46.2402C259.301 46.348 259.428 46.4343 259.572 46.4989C259.719 46.56 259.888 46.5906 260.079 46.5906C260.262 46.5906 260.427 46.56 260.574 46.4989C260.725 46.4379 260.855 46.3552 260.963 46.251C261.088 46.1324 261.193 45.9923 261.275 45.8306C261.361 45.6653 261.43 45.4838 261.48 45.2862C261.523 45.1137 261.554 44.9341 261.572 44.7472C261.593 44.5568 261.606 44.3645 261.609 44.1705V43.1249ZM266.863 39.7239L267.834 43.0818L268.906 39.7239H270.518V47.5715H269.3V44.9089L269.375 41.4055L268.168 45.1515H267.494L266.4 41.5349L266.47 44.9089V47.5715H265.257V39.7239H266.863ZM274.451 44.5801V47.5715H273.158V39.7239H275.783C276.178 39.7274 276.541 39.7867 276.871 39.9017C277.206 40.0167 277.493 40.1802 277.734 40.3922C277.974 40.6042 278.161 40.8611 278.294 41.163C278.427 41.4648 278.494 41.8043 278.494 42.1816C278.494 42.5446 278.427 42.8733 278.294 43.168C278.161 43.459 277.974 43.7088 277.734 43.9172C277.493 44.1292 277.206 44.2927 276.871 44.4077C276.541 44.5227 276.178 44.5801 275.783 44.5801H274.451ZM274.451 43.5237H275.783C276.002 43.5201 276.198 43.486 276.37 43.4213C276.546 43.353 276.695 43.2596 276.817 43.141C276.94 43.0225 277.031 42.8823 277.092 42.7206C277.157 42.5589 277.189 42.3829 277.189 42.1924C277.189 41.984 277.157 41.7954 277.092 41.6265C277.031 41.454 276.94 41.3049 276.817 41.1791C276.695 41.0534 276.546 40.9563 276.37 40.8881C276.198 40.8198 276.002 40.7839 275.783 40.7803H274.451V43.5237ZM284.605 45.7659H282.142L281.608 47.5715H280.261L282.815 39.7239H283.963L286.475 47.5715H285.133L284.605 45.7659ZM282.47 44.6556H284.287L283.387 41.551L282.47 44.6556ZM293.594 47.5715H292.295L289.746 42.1709L289.74 47.5715H288.431V39.7239H289.746L292.279 45.103L292.29 39.7239H293.594V47.5715ZM296.455 39.7239H301.08V40.7964H299.403V46.5043H301.08V47.5715H296.455V46.5043H298.094V40.7964H296.455V39.7239ZM308.608 44.0519H305.363V46.5043H309.152V47.5715H304.064V39.7239H309.126V40.7964H305.363V43.0063H308.608V44.0519ZM315.819 45.5503C315.819 45.3671 315.781 45.2054 315.706 45.0652C315.63 44.9251 315.524 44.7993 315.388 44.6879C315.244 44.5837 315.073 44.4903 314.875 44.4077C314.681 44.3214 314.464 44.2442 314.223 44.1759C313.853 44.0717 313.512 43.9441 313.199 43.7932C312.89 43.6387 312.626 43.4662 312.407 43.2758C312.188 43.0818 312.015 42.8626 311.889 42.6182C311.767 42.3703 311.706 42.0918 311.706 41.7828C311.706 41.4486 311.778 41.1486 311.922 40.8827C312.066 40.6132 312.26 40.3832 312.504 40.1928C312.748 40.0059 313.032 39.864 313.356 39.767C313.683 39.6664 314.026 39.6161 314.385 39.6161C314.766 39.6161 315.12 39.6753 315.447 39.7939C315.777 39.9089 316.065 40.0706 316.309 40.279C316.554 40.491 316.746 40.7443 316.886 41.039C317.03 41.33 317.101 41.6534 317.101 42.0092H315.819C315.801 41.8115 315.758 41.6319 315.689 41.4702C315.625 41.3049 315.533 41.163 315.414 41.0444C315.292 40.9294 315.143 40.8396 314.967 40.7749C314.795 40.7066 314.595 40.6725 314.369 40.6725C314.171 40.6725 313.988 40.6994 313.819 40.7533C313.654 40.8036 313.51 40.8755 313.388 40.9689C313.266 41.0659 313.17 41.1827 313.102 41.3193C313.034 41.4558 313 41.6085 313 41.7774C313.003 41.9571 313.05 42.1152 313.14 42.2517C313.23 42.3847 313.35 42.5014 313.501 42.6021C313.656 42.7027 313.832 42.7907 314.029 42.8662C314.23 42.9416 314.441 43.0117 314.66 43.0764C314.937 43.1554 315.206 43.2542 315.468 43.3728C315.734 43.4878 315.979 43.6279 316.201 43.7932C316.478 44.0016 316.699 44.2514 316.864 44.5424C317.033 44.8299 317.118 45.1623 317.118 45.5395C317.118 45.8881 317.044 46.1953 316.897 46.4612C316.753 46.7271 316.559 46.9481 316.315 47.1242C316.067 47.3074 315.779 47.4458 315.452 47.5392C315.125 47.629 314.78 47.6739 314.417 47.6739C314.033 47.6739 313.654 47.6147 313.28 47.4961C312.906 47.3739 312.581 47.1978 312.304 46.9679C312.049 46.7523 311.846 46.4989 311.695 46.2079C311.548 45.9168 311.473 45.5827 311.469 45.2054H312.763C312.781 45.4461 312.831 45.6563 312.914 45.836C313 46.0121 313.117 46.1576 313.264 46.2726C313.408 46.3911 313.577 46.4792 313.771 46.5367C313.968 46.5942 314.184 46.6229 314.417 46.6229C314.615 46.6229 314.798 46.5996 314.967 46.5528C315.14 46.5061 315.289 46.4361 315.414 46.3426C315.537 46.2528 315.634 46.1414 315.706 46.0085C315.781 45.8755 315.819 45.7228 315.819 45.5503ZM332.223 47.5715H326.957V46.6768L329.512 43.8956C329.724 43.6621 329.902 43.4537 330.046 43.2704C330.19 43.0836 330.306 42.9129 330.396 42.7584C330.482 42.6038 330.544 42.4601 330.579 42.3272C330.619 42.1906 330.639 42.0541 330.639 41.9175C330.639 41.7343 330.612 41.5672 330.558 41.4163C330.504 41.2654 330.425 41.136 330.321 41.0282C330.217 40.9204 330.091 40.836 329.943 40.7749C329.8 40.7138 329.638 40.6833 329.458 40.6833C329.228 40.6833 329.029 40.7156 328.86 40.7803C328.691 40.8449 328.551 40.9366 328.44 41.0552C328.325 41.1809 328.238 41.3336 328.181 41.5133C328.123 41.6894 328.095 41.8906 328.095 42.117H326.801C326.801 41.7756 326.864 41.454 326.99 41.1522C327.116 40.8467 327.295 40.5808 327.529 40.3545C327.759 40.1281 328.039 39.9484 328.37 39.8155C328.704 39.6825 329.076 39.6161 329.485 39.6161C329.87 39.6161 330.213 39.6717 330.515 39.7831C330.82 39.8945 331.077 40.049 331.286 40.2467C331.49 40.4443 331.647 40.6815 331.754 40.9581C331.862 41.2312 331.916 41.5331 331.916 41.8636C331.916 42.1116 331.875 42.3523 331.792 42.5859C331.713 42.8159 331.604 43.044 331.463 43.2704C331.32 43.4968 331.149 43.7249 330.951 43.9549C330.757 44.1849 330.545 44.422 330.315 44.6664L328.569 46.5313H332.223V47.5715ZM339.995 44.5801C339.995 45.0832 339.935 45.5288 339.817 45.9168C339.702 46.3013 339.535 46.6229 339.315 46.8816C339.1 47.1475 338.834 47.3488 338.518 47.4853C338.205 47.6182 337.849 47.6847 337.45 47.6847C337.055 47.6847 336.699 47.6182 336.383 47.4853C336.067 47.3488 335.799 47.1475 335.58 46.8816C335.357 46.6229 335.187 46.3013 335.068 45.9168C334.953 45.5288 334.896 45.0832 334.896 44.5801V42.7206C334.896 42.2176 334.953 41.7738 335.068 41.3893C335.187 41.0013 335.356 40.6743 335.575 40.4084C335.794 40.1461 336.06 39.9484 336.373 39.8155C336.689 39.6789 337.044 39.6107 337.44 39.6107C337.839 39.6107 338.194 39.6789 338.507 39.8155C338.823 39.9484 339.093 40.1461 339.315 40.4084C339.531 40.6743 339.698 41.0013 339.817 41.3893C339.935 41.7738 339.995 42.2176 339.995 42.7206V44.5801ZM336.189 44.122L338.685 42.2302C338.67 41.9499 338.631 41.7073 338.566 41.5025C338.505 41.2977 338.417 41.1306 338.302 41.0013C338.201 40.8863 338.078 40.8 337.93 40.7425C337.786 40.685 337.623 40.6563 337.44 40.6563C337.242 40.6563 337.068 40.6904 336.917 40.7587C336.766 40.827 336.64 40.9276 336.54 41.0605C336.421 41.2115 336.333 41.4073 336.275 41.648C336.218 41.8852 336.189 42.1655 336.189 42.4889V43.5453C336.189 43.6818 336.189 43.786 336.189 43.8579C336.189 43.9298 336.189 44.0178 336.189 44.122ZM338.696 44.7957V43.804C338.696 43.7142 338.696 43.6207 338.696 43.5237C338.696 43.4267 338.696 43.3261 338.696 43.2219L336.2 45.103C336.218 45.3509 336.256 45.5701 336.313 45.7605C336.374 45.951 336.455 46.1091 336.556 46.2348C336.656 46.3714 336.78 46.4738 336.928 46.5421C337.079 46.6103 337.253 46.6445 337.45 46.6445C337.645 46.6445 337.815 46.6121 337.963 46.5475C338.11 46.4792 338.236 46.3804 338.34 46.251C338.458 46.1001 338.546 45.9025 338.604 45.6581C338.665 45.4138 338.696 45.1263 338.696 44.7957ZM347.69 47.5715H342.424V46.6768L344.979 43.8956C345.191 43.6621 345.369 43.4537 345.513 43.2704C345.656 43.0836 345.773 42.9129 345.863 42.7584C345.949 42.6038 346.01 42.4601 346.046 42.3272C346.086 42.1906 346.106 42.0541 346.106 41.9175C346.106 41.7343 346.079 41.5672 346.025 41.4163C345.971 41.2654 345.892 41.136 345.788 41.0282C345.683 40.9204 345.558 40.836 345.41 40.7749C345.267 40.7138 345.105 40.6833 344.925 40.6833C344.695 40.6833 344.496 40.7156 344.327 40.7803C344.158 40.8449 344.018 40.9366 343.906 41.0552C343.792 41.1809 343.705 41.3336 343.648 41.5133C343.59 41.6894 343.562 41.8906 343.562 42.117H342.268C342.268 41.7756 342.331 41.454 342.457 41.1522C342.582 40.8467 342.762 40.5808 342.996 40.3545C343.226 40.1281 343.506 39.9484 343.836 39.8155C344.171 39.6825 344.543 39.6161 344.952 39.6161C345.337 39.6161 345.68 39.6717 345.982 39.7831C346.287 39.8945 346.544 40.049 346.752 40.2467C346.957 40.4443 347.113 40.6815 347.221 40.9581C347.329 41.2312 347.383 41.5331 347.383 41.8636C347.383 42.1116 347.342 42.3523 347.259 42.5859C347.18 42.8159 347.07 43.044 346.93 43.2704C346.786 43.4968 346.616 43.7249 346.418 43.9549C346.224 44.1849 346.012 44.422 345.782 44.6664L344.036 46.5313H347.69V47.5715ZM350.621 43.68L351.042 39.7239H355.262V40.8665H352.114L351.909 42.7476C352.039 42.6721 352.208 42.6003 352.416 42.532C352.628 42.4637 352.871 42.4296 353.144 42.4296C353.514 42.4296 353.844 42.4907 354.135 42.6128C354.43 42.735 354.68 42.9093 354.885 43.1357C355.086 43.3656 355.24 43.6441 355.348 43.9711C355.456 44.2945 355.51 44.6592 355.51 45.0652C355.51 45.4246 355.458 45.7641 355.354 46.0839C355.253 46.4001 355.097 46.6768 354.885 46.914C354.676 47.1511 354.412 47.338 354.092 47.4745C353.773 47.6111 353.395 47.6793 352.96 47.6793C352.63 47.6793 352.314 47.6326 352.012 47.5392C351.71 47.4422 351.442 47.2984 351.209 47.108C350.975 46.9212 350.783 46.6894 350.632 46.4127C350.485 46.1324 350.4 45.8108 350.379 45.4479H351.635C351.681 45.8324 351.821 46.127 352.055 46.3319C352.292 46.5367 352.594 46.6391 352.96 46.6391C353.176 46.6391 353.363 46.5996 353.521 46.5205C353.679 46.4415 353.812 46.3301 353.92 46.1863C354.02 46.0462 354.096 45.8773 354.146 45.6797C354.197 45.4785 354.222 45.2611 354.222 45.0275C354.222 44.8011 354.191 44.5945 354.13 44.4077C354.073 44.2172 353.985 44.0519 353.866 43.9118C353.747 43.7717 353.6 43.6639 353.424 43.5884C353.248 43.5094 353.043 43.4698 352.81 43.4698C352.655 43.4698 352.52 43.4824 352.405 43.5076C352.294 43.5327 352.195 43.565 352.109 43.6046C352.019 43.6477 351.936 43.698 351.861 43.7555C351.789 43.8094 351.719 43.8687 351.651 43.9334L350.621 43.68Z" fill="#FAFAFA"/>
</svg>
