<svg width="17" height="20" viewBox="0 0 17 20" fill="none" xmlns="http://www.w3.org/2000/svg">
<path d="M16.2509 9.2788C16.1436 9.38652 16.016 9.47198 15.8756 9.5303C15.7351 9.58862 15.5846 9.61864 15.4325 9.61864C15.2804 9.61864 15.1298 9.58862 14.9894 9.5303C14.8489 9.47198 14.7214 9.38652 14.614 9.2788L9.65621 4.32096V18.4752C9.65621 18.7816 9.53448 19.0755 9.31779 19.2922C9.1011 19.5089 8.80721 19.6306 8.50077 19.6306C8.19432 19.6306 7.90043 19.5089 7.68374 19.2922C7.46705 19.0755 7.34532 18.7816 7.34532 18.4752V4.32096L2.38556 9.2788C2.1685 9.49586 1.8741 9.61781 1.56712 9.61781C1.26014 9.61781 0.965742 9.49586 0.748678 9.2788C0.531614 9.06173 0.409668 8.76733 0.409668 8.46035C0.409668 8.15338 0.531614 7.85898 0.748678 7.64191L7.68136 0.709227C7.78871 0.601509 7.91626 0.51604 8.05671 0.457722C8.19715 0.399404 8.34773 0.369385 8.4998 0.369385C8.65188 0.369385 8.80246 0.399404 8.9429 0.457722C9.08335 0.51604 9.2109 0.601509 9.31825 0.709227L16.2509 7.64191C16.3586 7.74926 16.4441 7.87681 16.5024 8.01726C16.5608 8.1577 16.5908 8.30828 16.5908 8.46035C16.5908 8.61243 16.5608 8.763 16.5024 8.90345C16.4441 9.0439 16.3586 9.17145 16.2509 9.2788Z" fill="#FAFAFA"/>
</svg>
