<svg width="17" height="17" viewBox="0 0 17 17" fill="none" xmlns="http://www.w3.org/2000/svg">
<path d="M14.3538 8.85378L9.85375 13.3538C9.75993 13.4476 9.63268 13.5003 9.5 13.5003C9.36732 13.5003 9.24007 13.4476 9.14625 13.3538C9.05243 13.26 8.99972 13.1327 8.99972 13C8.99972 12.8674 9.05243 12.7401 9.14625 12.6463L12.7931 9.00003H3C2.86739 9.00003 2.74021 8.94736 2.64645 8.85359C2.55268 8.75982 2.5 8.63264 2.5 8.50003C2.5 8.36743 2.55268 8.24025 2.64645 8.14648C2.74021 8.05271 2.86739 8.00003 3 8.00003H12.7931L9.14625 4.35378C9.05243 4.25996 8.99972 4.13272 8.99972 4.00003C8.99972 3.86735 9.05243 3.7401 9.14625 3.64628C9.24007 3.55246 9.36732 3.49976 9.5 3.49976C9.63268 3.49976 9.75993 3.55246 9.85375 3.64628L14.3538 8.14628C14.4002 8.19272 14.4371 8.24786 14.4623 8.30856C14.4874 8.36926 14.5004 8.43433 14.5004 8.50003C14.5004 8.56574 14.4874 8.6308 14.4623 8.6915C14.4371 8.7522 14.4002 8.80735 14.3538 8.85378Z" fill="#01000A"/>
</svg>
