<svg width="81" height="15" viewBox="0 0 81 15" fill="none" xmlns="http://www.w3.org/2000/svg">
<path d="M0.670484 13.904L6.89139 7.93398L9.08022 10.041L1.6881 13.9872C1.40969 14.135 1.06409 14.135 0.785681 13.9872L0.670484 13.9132V13.904ZM6.26737 7.32404L0.334473 13.0168V1.63125L6.26737 7.32404ZM9.97303 4.97669L12.8723 6.52002C13.1603 6.66789 13.3331 6.95437 13.3331 7.26859C13.3331 7.5828 13.1603 7.86005 12.8723 8.01715L9.89623 9.60669L7.52499 7.33328L9.97303 4.97669ZM0.603283 0.688618C0.660884 0.64241 0.71848 0.596202 0.785681 0.559236C1.06409 0.40213 1.40969 0.40213 1.6881 0.559236L9.16662 4.55158L6.89139 6.73258L0.603283 0.697859V0.688618Z" fill="#FAFAFA"/>
<path d="M37.852 5.33731C36.1239 5.33731 34.7127 6.58492 34.7127 8.31308C34.7127 10.0413 36.1239 11.2889 37.852 11.2889C39.58 11.2889 41.0008 10.0228 41.0008 8.31308C41.0008 6.6034 39.5896 5.33731 37.852 5.33731ZM37.852 10.1244C36.9016 10.1244 36.0855 9.37586 36.0855 8.32233C36.0855 7.26879 36.9016 6.52023 37.852 6.52023C38.8024 6.52023 39.6184 7.25031 39.6184 8.32233C39.6184 9.39434 38.8024 10.1244 37.852 10.1244ZM30.9975 5.33731C29.2598 5.33731 27.8582 6.58492 27.8582 8.31308C27.8582 10.0413 29.2694 11.2889 30.9975 11.2889C32.7255 11.2889 34.1367 10.0228 34.1367 8.31308C34.1367 6.6034 32.7255 5.33731 30.9975 5.33731ZM30.9975 10.1244C30.047 10.1244 29.231 9.37586 29.231 8.32233C29.231 7.26879 30.047 6.52023 30.9975 6.52023C31.9479 6.52023 32.7639 7.25031 32.7639 8.32233C32.7639 9.39434 31.9479 10.1244 30.9975 10.1244ZM22.8373 6.25222V7.51831H26.015C25.919 8.22991 25.6694 8.74744 25.295 9.10786C24.8342 9.54221 24.1045 10.032 22.8373 10.032C20.8789 10.032 19.3525 8.53488 19.3525 6.66809C19.3525 4.8013 20.8885 3.30418 22.8373 3.30418C23.8933 3.30418 24.6613 3.70156 25.2278 4.20984L26.1686 3.31342C25.3718 2.59258 24.3158 2.03809 22.8373 2.03809C20.1589 2.03809 17.9028 4.11743 17.9028 6.66809C17.9028 9.21875 20.1589 11.2981 22.8373 11.2981C24.287 11.2981 25.3718 10.8453 26.2358 9.99504C27.1094 9.1633 27.3878 7.98963 27.3878 7.03775C27.3878 6.74202 27.359 6.47402 27.3206 6.24298H22.8469L22.8373 6.25222ZM56.1979 7.23183C55.9387 6.56644 55.1418 5.33731 53.5194 5.33731C51.897 5.33731 50.5722 6.54795 50.5722 8.31308C50.5722 9.9858 51.897 11.2889 53.6826 11.2889C55.1226 11.2889 55.9483 10.4571 56.2939 9.96732L55.2282 9.29269C54.873 9.79173 54.3834 10.1152 53.6826 10.1152C52.9818 10.1152 52.4826 9.81021 52.1658 9.20951L56.3515 7.56452L56.2075 7.22258L56.1979 7.23183ZM51.9258 8.22067C51.8874 7.07472 52.8666 6.48326 53.5578 6.48326C54.105 6.48326 54.5658 6.74202 54.7194 7.11168L51.9162 8.22067H51.9258ZM48.5273 11.1133H49.9002V2.36154H48.5273V11.1133ZM46.2713 6.0027H46.2233C45.9161 5.65152 45.3209 5.33731 44.5721 5.33731C43.0073 5.33731 41.5672 6.64961 41.5672 8.32233C41.5672 9.99504 42.9977 11.2889 44.5721 11.2889C45.3209 11.2889 45.9065 10.9746 46.2233 10.6142H46.2713V11.0393C46.2713 12.176 45.6281 12.786 44.6009 12.786C43.7561 12.786 43.2377 12.2038 43.0265 11.7232L41.8264 12.1945C42.172 12.9801 43.0841 13.9597 44.6009 13.9597C46.2137 13.9597 47.5769 13.054 47.5769 10.8545V5.50366H46.2713V5.98422V6.0027ZM44.6969 10.1244C43.7465 10.1244 42.9497 9.36662 42.9497 8.33157C42.9497 7.29652 43.7465 6.51099 44.6969 6.51099C45.6473 6.51099 46.3673 7.27803 46.3673 8.33157C46.3673 9.3851 45.6281 10.1244 44.6969 10.1244ZM62.6492 2.36154H59.3563V11.1133H60.7291V7.79556H62.6492C64.1756 7.79556 65.6732 6.74202 65.6732 5.07855C65.6732 3.41507 64.1756 2.36154 62.6492 2.36154ZM62.678 6.57568H60.7195V3.57218H62.678C63.7052 3.57218 64.2908 4.38543 64.2908 5.06931C64.2908 5.75318 63.7052 6.56644 62.678 6.56644V6.57568ZM71.1645 5.31883C70.1757 5.31883 69.1389 5.7347 68.7165 6.65885L69.9357 7.14865C70.1949 6.65885 70.6845 6.50174 71.1933 6.50174C71.9037 6.50174 72.6237 6.90837 72.6429 7.62921V7.72163C72.3933 7.583 71.8653 7.37969 71.2125 7.37969C69.8973 7.37969 68.5629 8.06356 68.5629 9.34813C68.5629 10.5218 69.6381 11.2796 70.8477 11.2796C71.7693 11.2796 72.2781 10.8822 72.6045 10.4202H72.6525V11.0948H73.9773V7.74011C73.9773 6.18753 72.7581 5.31883 71.1837 5.31883H71.1645ZM71.0013 10.1152C70.5501 10.1152 69.9261 9.90263 69.9261 9.37586C69.9261 8.70123 70.7037 8.44247 71.3853 8.44247C71.9901 8.44247 72.2781 8.57185 72.6429 8.73819C72.5373 9.55145 71.7981 10.1244 71.0109 10.1244L71.0013 10.1152ZM78.7966 5.5129L77.2222 9.31117H77.1742L75.5422 5.5129H74.0637L76.5118 10.8175L75.1102 13.7656H76.5406L80.3231 5.5129H78.7966ZM66.422 11.1133H67.7948V2.36154H66.422V11.1133Z" fill="#FAFAFA"/>
</svg>
