<svg width="76" height="16" viewBox="0 0 76 16" fill="none" xmlns="http://www.w3.org/2000/svg">
<path d="M11.1207 8.66944C11.1009 6.72138 12.7774 5.776 12.8567 5.7378C11.9044 4.41045 10.4363 4.22901 9.92042 4.20991C8.69035 4.08577 7.49005 4.91656 6.86509 4.91656C6.24014 4.91656 5.25807 4.21946 4.21648 4.23856C2.8773 4.25766 1.61747 5.0025 0.932995 6.16752C-0.48555 8.53576 0.575879 12.0117 1.9349 13.9311C2.61938 14.867 3.41297 15.9174 4.45456 15.8792C5.47631 15.841 5.85326 15.2585 7.08333 15.2585C8.3134 15.2585 8.66059 15.8792 9.72202 15.8601C10.8132 15.841 11.5076 14.9147 12.1623 13.9693C12.946 12.8902 13.2634 11.8398 13.2733 11.7825C13.2436 11.7825 11.1505 10.9995 11.1306 8.66944H11.1207Z" fill="#FAFAFA"/>
<path d="M9.10634 2.94908C9.65193 2.29017 10.0289 1.39254 9.92969 0.485352C9.1361 0.523549 8.14411 1.01056 7.56875 1.65992C7.06284 2.23288 6.61644 3.15916 6.72556 4.0377C7.61835 4.10455 8.53098 3.60798 9.10634 2.95863V2.94908Z" fill="#FAFAFA"/>
<path d="M25.8811 10.5713H22.4191L21.5858 12.9396H20.1177L23.4012 4.19238H24.9288L28.2123 12.9396H26.7243L25.8911 10.5713H25.8811ZM22.7762 9.48271H25.524L24.1749 5.64388H24.1352L22.7762 9.48271Z" fill="#FAFAFA"/>
<path d="M35.2958 9.75083C35.2958 11.7371 34.1947 13.0072 32.5281 13.0072C31.6651 13.0549 30.8616 12.6156 30.4449 11.8899H30.4152V15.0507H29.0562V6.56136H30.3755V7.62133H30.4053C30.8417 6.89558 31.6452 6.46586 32.5182 6.49451C34.2046 6.49451 35.3057 7.77412 35.3057 9.75083H35.2958ZM33.8971 9.75083C33.8971 8.46167 33.2027 7.61178 32.1412 7.61178C31.0798 7.61178 30.4053 8.48077 30.4053 9.75083C30.4053 11.0209 31.0997 11.8994 32.1412 11.8994C33.1828 11.8994 33.8971 11.0591 33.8971 9.75083Z" fill="#FAFAFA"/>
<path d="M42.5868 9.75083C42.5868 11.7371 41.4857 13.0072 39.8191 13.0072C38.9561 13.0549 38.1526 12.6156 37.736 11.8899H37.7062V15.0507H36.3472V6.56136H37.6665V7.62133H37.6963C38.1327 6.89558 38.9363 6.46586 39.8092 6.49451C41.4956 6.49451 42.5967 7.77412 42.5967 9.75083H42.5868ZM41.1881 9.75083C41.1881 8.46167 40.4937 7.61178 39.4323 7.61178C38.3708 7.61178 37.6963 8.48077 37.6963 9.75083C37.6963 11.0209 38.3907 11.8994 39.4323 11.8994C40.4738 11.8994 41.1881 11.0591 41.1881 9.75083Z" fill="#FAFAFA"/>
<path d="M47.4078 10.4952C47.507 11.3642 48.38 11.9371 49.5803 11.9371C50.7806 11.9371 51.5543 11.3642 51.5543 10.5811C51.5543 9.90311 51.0583 9.49249 49.8779 9.21556L48.6974 8.93863C47.0309 8.5471 46.2571 7.80226 46.2571 6.57994C46.2571 5.07115 47.6261 4.03027 49.5604 4.03027C51.4948 4.03027 52.7943 5.07115 52.8439 6.57994H51.475C51.3956 5.71095 50.6417 5.17619 49.5505 5.17619C48.4593 5.17619 47.7054 5.71096 47.7054 6.48445C47.7054 7.10516 48.1816 7.46803 49.3521 7.74496L50.354 7.98369C52.219 8.40386 52.9927 9.12961 52.9927 10.4092C52.9927 12.0422 51.6337 13.0735 49.4811 13.0735C47.4673 13.0735 46.1083 12.0708 46.019 10.4856H47.4078V10.4952Z" fill="#FAFAFA"/>
<path d="M55.9279 5.04297V6.55176H57.1877V7.59264H55.9279V11.1068C55.9279 11.6511 56.1759 11.9089 56.7314 11.9089C56.8802 11.9089 57.029 11.8994 57.1778 11.8803V12.9116C56.9298 12.9594 56.6718 12.9785 56.4238 12.9689C55.0847 12.9689 54.5589 12.4819 54.5589 11.25V7.59264H53.5967V6.55176H54.5589V5.04297H55.9279Z" fill="#FAFAFA"/>
<path d="M57.9224 9.75024C57.9224 7.74489 59.1524 6.48438 61.067 6.48438C62.9815 6.48438 64.2116 7.74489 64.2116 9.75024C64.2116 11.7556 62.9914 13.0161 61.067 13.0161C59.1425 13.0161 57.9224 11.7556 57.9224 9.75024ZM62.8228 9.75024C62.8228 8.37514 62.1681 7.56345 61.067 7.56345C59.9659 7.56345 59.3111 8.38469 59.3111 9.75024C59.3111 11.1158 59.9659 11.937 61.067 11.937C62.1681 11.937 62.8228 11.1349 62.8228 9.75024Z" fill="#FAFAFA"/>
<path d="M65.3229 6.56121H66.6224V7.64983H66.6522C66.8307 6.95273 67.4954 6.46572 68.2493 6.49436C68.408 6.49436 68.5667 6.51346 68.7155 6.54211V7.76442C68.5171 7.70713 68.3088 7.67848 68.1005 7.68803C67.3466 7.65938 66.7018 8.22279 66.672 8.94854C66.672 9.01539 66.672 9.08223 66.672 9.14908V12.9306H65.313V6.55166L65.3229 6.56121Z" fill="#FAFAFA"/>
<path d="M74.9841 11.0585C74.8056 12.214 73.6251 13.0161 72.1272 13.0161C70.2028 13.0161 69.0024 11.7747 69.0024 9.77889C69.0024 7.78308 70.2028 6.48438 72.0677 6.48438C73.9326 6.48438 75.0536 7.69714 75.0536 9.63565V10.0845H70.3714V10.1609C70.292 11.0776 70.9864 11.8797 71.9387 11.9657C72.0082 11.9657 72.0776 11.9657 72.157 11.9657C72.8216 12.023 73.4366 11.6601 73.6846 11.068H74.9742L74.9841 11.0585ZM70.3912 9.15819H73.7045C73.7541 8.3083 73.0795 7.5921 72.2066 7.54435C72.1669 7.54435 72.1272 7.54435 72.0875 7.54435C71.165 7.54435 70.4012 8.26055 70.4012 9.14864C70.4012 9.14864 70.4012 9.14864 70.4012 9.15819H70.3912Z" fill="#FAFAFA"/>
</svg>
