<svg width="20" height="21" viewBox="0 0 20 21" fill="none" xmlns="http://www.w3.org/2000/svg">
<path d="M19.63 14.8603C19.3573 13.8318 19.0409 12.7818 18.6699 11.6992C18.408 10.934 18.408 10.1044 18.6699 9.33925C19.0409 8.2567 19.3573 7.1958 19.63 6.1782C20.2628 3.55843 16.8042 0.105099 14.1638 0.743803C13.1492 1.00362 12.1127 1.31755 11.0543 1.6748C10.2906 1.93461 9.43957 1.93461 8.67583 1.6748C7.59569 1.2959 6.55919 0.981964 5.5445 0.722152C2.89324 0.0942736 -0.56541 3.53678 0.0783131 6.15655C0.351077 7.18497 0.667483 8.23505 1.03844 9.3176C1.3003 10.0754 1.3003 10.9198 1.03844 11.6776C0.667483 12.7601 0.351077 13.821 0.0783131 14.8386C-0.554499 17.4584 2.90415 20.9117 5.5445 20.273C6.55919 20.0132 7.59569 19.6992 8.65401 19.342C9.41775 19.0822 10.2688 19.0822 11.0325 19.342C12.1017 19.6992 13.1383 20.0132 14.142 20.273C16.8042 20.9225 20.2628 17.48 19.63 14.8603ZM9.85417 17.3826C6.02457 17.3826 2.92597 14.3082 2.92597 10.5084C2.92597 6.70865 6.02457 3.63421 9.85417 3.63421C13.6838 3.63421 16.7824 6.70865 16.7824 10.5084C16.7824 14.3082 13.6838 17.3826 9.85417 17.3826Z" fill="#FAFAFA"/>
</svg>
