<svg width="18" height="16" viewBox="0 0 18 16" fill="none" xmlns="http://www.w3.org/2000/svg">
<path d="M4.65519 5.28711H1.09424V15.5978H4.65519V5.28711Z" fill="#FAFAFA"/>
<path fill-rule="evenodd" clip-rule="evenodd" d="M2.90317 0.31543C1.68201 0.31543 0.889648 1.08716 0.889648 2.10118C0.889648 3.1152 1.66336 3.88693 2.85656 3.88693H2.8752C4.11501 3.88693 4.88872 3.09725 4.88872 2.10118C4.87008 1.08716 4.11501 0.31543 2.89384 0.31543H2.90317Z" fill="#FAFAFA"/>
<path fill-rule="evenodd" clip-rule="evenodd" d="M13.399 5.04492C11.5067 5.04492 10.6584 6.04997 10.1923 6.74991V6.7858H10.1643C10.1643 6.7858 10.183 6.75888 10.1923 6.74991V5.28721H6.63135C6.67796 6.25636 6.63135 15.5979 6.63135 15.5979H10.1923V9.83684C10.1923 9.53173 10.2109 9.21766 10.3135 9.00229C10.5745 8.38311 11.1524 7.74598 12.1406 7.74598C13.427 7.74598 13.949 8.68821 13.949 10.0791V15.5979H17.5099V9.68428C17.5099 6.5166 15.7574 5.04492 13.4083 5.04492H13.399Z" fill="#FAFAFA"/>
</svg>
