<svg width="85" height="15" viewBox="0 0 85 15" fill="none" xmlns="http://www.w3.org/2000/svg">
<path d="M6.8 0.441406L7.75926 5.92109L13.2672 5.14009L8.35212 7.74572L10.7969 12.7427L6.8 8.87341L2.80306 12.7427L5.24788 7.74572L0.332816 5.14009L5.84073 5.92109L6.8 0.441406Z" fill="#FAFAFA"/>
<path d="M24.6501 0.441406L25.6094 5.92109L31.1173 5.14009L26.2022 7.74572L28.647 12.7427L24.6501 8.87341L20.6532 12.7427L23.098 7.74572L18.1829 5.14009L23.6908 5.92109L24.6501 0.441406Z" fill="#FAFAFA"/>
<path d="M42.4997 0.441406L43.459 5.92109L48.9669 5.14009L44.0518 7.74572L46.4966 12.7427L42.4997 8.87341L38.5028 12.7427L40.9476 7.74572L36.0325 5.14009L41.5404 5.92109L42.4997 0.441406Z" fill="#FAFAFA"/>
<path d="M60.3498 0.441406L61.3091 5.92109L66.817 5.14009L61.9019 7.74572L64.3467 12.7427L60.3498 8.87341L56.3529 12.7427L58.7977 7.74572L53.8826 5.14009L59.3905 5.92109L60.3498 0.441406Z" fill="#FAFAFA"/>
<path d="M78.1999 0.441406L79.1592 5.92109L84.6671 5.14009L79.752 7.74572L82.1968 12.7427L78.1999 8.87341L74.203 12.7427L76.6478 7.74572L71.7327 5.14009L77.2406 5.92109L78.1999 0.441406Z" fill="#FAFAFA"/>
</svg>
