<svg xmlns="http://www.w3.org/2000/svg" class="Follow_icon__XNozr Follow_reddit__MsnuJ" viewBox="0 0 18 18"><path fill="white" d="M6.228 8.681c-.589 0-1.095.585-1.13 1.348-.035.762.48 1.072 1.07 1.072s1.028-.277 1.063-1.04c.035-.761-.415-1.38-1.003-1.38Zm6.684 1.348c-.035-.763-.541-1.348-1.13-1.348s-1.039.619-1.004 1.38c.035.764.476 1.04 1.064 1.04s1.105-.31 1.07-1.072ZM11.22 12.02a.165.165 0 0 0-.139-.228 20.868 20.868 0 0 0-2.077-.101c-.73 0-1.43.036-2.077.101a.166.166 0 0 0-.138.229 2.4 2.4 0 0 0 4.43 0Z"/><path fill="white" fill-rule="evenodd" d="M0 9c0-4.971 4.029-9 9-9s9 4.029 9 9-4.029 9-9 9H1.304a.54.54 0 0 1-.382-.922l1.714-1.714A8.973 8.973 0 0 1 0 9Zm12.29-3.601a1.5 1.5 0 0 1-1.459-1.155 1.777 1.777 0 0 0-1.524 1.757v.006c1.332.05 2.55.425 3.515 1.022a2.1 2.1 0 1 1 2.18 3.565C14.936 13.036 12.273 15 9.003 15s-5.929-1.962-5.998-4.402a2.101 2.101 0 1 1 2.176-3.567c.956-.593 2.16-.968 3.48-1.024v-.008c0-1.246.947-2.275 2.16-2.405a1.5 1.5 0 1 1 1.469 1.805Z"/></svg>