<svg width="61" height="16" viewBox="0 0 61 16" fill="none" xmlns="http://www.w3.org/2000/svg">
<path d="M11.1207 8.66944C11.1009 6.72138 12.7774 5.776 12.8567 5.7378C11.9044 4.41045 10.4363 4.22901 9.92042 4.20991C8.69035 4.08577 7.49005 4.91656 6.86509 4.91656C6.24014 4.91656 5.25807 4.21946 4.21648 4.23856C2.8773 4.25766 1.61747 5.0025 0.932995 6.16752C-0.48555 8.53576 0.575879 12.0117 1.9349 13.9311C2.61938 14.867 3.41297 15.9174 4.45456 15.8792C5.47631 15.841 5.85326 15.2585 7.08333 15.2585C8.3134 15.2585 8.66059 15.8792 9.72202 15.8601C10.8132 15.841 11.5076 14.9147 12.1623 13.9693C12.946 12.8902 13.2634 11.8398 13.2733 11.7825C13.2436 11.7825 11.1505 10.9995 11.1306 8.66944H11.1207Z" fill="#FAFAFA"/>
<path d="M9.10634 2.94908C9.65193 2.29017 10.0289 1.39254 9.92969 0.485352C9.1361 0.523549 8.14411 1.01056 7.56875 1.65992C7.06284 2.23288 6.61644 3.15916 6.72556 4.0377C7.61835 4.10455 8.53098 3.60798 9.10634 2.95863V2.94908Z" fill="#FAFAFA"/>
<path opacity="0.9" d="M57.1172 13.6465C56.4805 13.6465 55.9258 13.5469 55.4531 13.3477C54.9805 13.1445 54.6074 12.8633 54.334 12.5039C54.0605 12.1445 53.9043 11.7285 53.8652 11.2559L53.8594 11.1797H55.1543L55.1602 11.2441C55.1875 11.498 55.2871 11.7188 55.459 11.9062C55.6348 12.0938 55.8691 12.2402 56.1621 12.3457C56.459 12.4512 56.7969 12.5039 57.1758 12.5039C57.5312 12.5039 57.8477 12.4473 58.125 12.334C58.4023 12.2207 58.6191 12.0645 58.7754 11.8652C58.9355 11.666 59.0156 11.4375 59.0156 11.1797V11.1738C59.0156 10.8496 58.8926 10.5801 58.6465 10.3652C58.4004 10.1504 57.998 9.98242 57.4395 9.86133L56.5137 9.66797C55.6582 9.48438 55.0352 9.19336 54.6445 8.79492C54.2539 8.39258 54.0586 7.87891 54.0586 7.25391V7.24805C54.0625 6.75977 54.1934 6.33008 54.4512 5.95898C54.7129 5.58789 55.0742 5.29883 55.5352 5.0918C55.9961 4.88477 56.5254 4.78125 57.123 4.78125C57.7207 4.78125 58.2422 4.88477 58.6875 5.0918C59.1367 5.29492 59.4902 5.57227 59.748 5.92383C60.0098 6.27539 60.1562 6.67188 60.1875 7.11328L60.1934 7.18945H58.9102L58.8984 7.11328C58.8633 6.88281 58.7676 6.67773 58.6113 6.49805C58.459 6.31836 58.2539 6.17773 57.9961 6.07617C57.7422 5.9707 57.4453 5.91992 57.1055 5.92383C56.7773 5.92383 56.4844 5.97461 56.2266 6.07617C55.9688 6.17383 55.7637 6.31641 55.6113 6.50391C55.4629 6.69141 55.3887 6.91797 55.3887 7.18359V7.18945C55.3887 7.50195 55.5078 7.76367 55.7461 7.97461C55.9883 8.18164 56.3809 8.34375 56.9238 8.46094L57.8496 8.66602C58.4395 8.79102 58.918 8.95703 59.2852 9.16406C59.6523 9.37109 59.9199 9.62695 60.0879 9.93164C60.2598 10.2324 60.3457 10.5918 60.3457 11.0098V11.0156C60.3457 11.5547 60.2129 12.0215 59.9473 12.416C59.6855 12.8066 59.3125 13.1094 58.8281 13.3242C58.3438 13.5391 57.7734 13.6465 57.1172 13.6465Z" fill="#FAFAFA"/>
<path opacity="0.9" d="M48.6533 13.6465C47.833 13.6465 47.1279 13.4668 46.5381 13.1074C45.9482 12.7441 45.4951 12.2305 45.1787 11.5664C44.8623 10.9023 44.7041 10.1191 44.7041 9.2168V9.20508C44.7041 8.29492 44.8643 7.50977 45.1846 6.84961C45.5049 6.18945 45.96 5.67969 46.5498 5.32031C47.1436 4.96094 47.8447 4.78125 48.6533 4.78125C49.4658 4.78125 50.167 4.96094 50.7568 5.32031C51.3467 5.67969 51.7998 6.19141 52.1162 6.85547C52.4365 7.51562 52.5967 8.29883 52.5967 9.20508V9.2168C52.5967 10.1191 52.4385 10.9023 52.1221 11.5664C51.8057 12.2266 51.3506 12.7383 50.7568 13.1016C50.167 13.4648 49.4658 13.6465 48.6533 13.6465ZM48.6533 12.4805C49.1846 12.4805 49.6455 12.3457 50.0361 12.0762C50.4268 11.8066 50.7275 11.4277 50.9385 10.9395C51.1494 10.4473 51.2549 9.87305 51.2549 9.2168V9.20508C51.2549 8.54102 51.1494 7.96484 50.9385 7.47656C50.7275 6.98828 50.4268 6.61133 50.0361 6.3457C49.6455 6.08008 49.1846 5.94727 48.6533 5.94727C48.1221 5.94727 47.6611 6.08008 47.2705 6.3457C46.8838 6.61133 46.583 6.98828 46.3682 7.47656C46.1533 7.96484 46.0459 8.54102 46.0459 9.20508V9.2168C46.0459 9.87305 46.1494 10.4473 46.3564 10.9395C46.5674 11.4277 46.8662 11.8066 47.2529 12.0762C47.6436 12.3457 48.1104 12.4805 48.6533 12.4805Z" fill="#FAFAFA"/>
<path opacity="0.9" d="M40.8574 13.5645C40.2402 13.5645 39.707 13.4316 39.2578 13.166C38.8125 12.8965 38.4688 12.5137 38.2266 12.0176C37.9844 11.5215 37.8633 10.9297 37.8633 10.2422V10.2305C37.8633 9.55469 37.9824 8.97266 38.2207 8.48438C38.4629 7.99609 38.8066 7.61914 39.252 7.35352C39.7012 7.08789 40.2344 6.95508 40.8516 6.95508C41.3867 6.95508 41.8457 7.04883 42.2285 7.23633C42.6152 7.41992 42.9219 7.67383 43.1484 7.99805C43.3789 8.31836 43.5234 8.68359 43.582 9.09375L43.5879 9.12305H42.3633L42.3574 9.11133C42.2871 8.79883 42.125 8.53906 41.8711 8.33203C41.6172 8.12109 41.2793 8.01562 40.8574 8.01562C40.5059 8.01562 40.2031 8.10547 39.9492 8.28516C39.6953 8.46094 39.5 8.71484 39.3633 9.04688C39.2305 9.37891 39.1641 9.77344 39.1641 10.2305V10.2422C39.1641 10.7109 39.2324 11.1133 39.3691 11.4492C39.5059 11.7852 39.7012 12.0449 39.9551 12.2285C40.209 12.4082 40.5098 12.498 40.8574 12.498C41.2559 12.498 41.5781 12.4102 41.8242 12.2344C42.0742 12.0586 42.25 11.7988 42.3516 11.4551L42.3633 11.4258L43.582 11.4199L43.5703 11.4727C43.4961 11.8867 43.3457 12.25 43.1191 12.5625C42.8926 12.875 42.5898 13.1211 42.2109 13.3008C41.8359 13.4766 41.3848 13.5645 40.8574 13.5645Z" fill="#FAFAFA"/>
<path opacity="0.9" d="M33.2603 13.5469C32.8579 13.5469 32.4966 13.4707 32.1763 13.3184C31.8599 13.1621 31.6099 12.9414 31.4263 12.6562C31.2427 12.3711 31.1509 12.0371 31.1509 11.6543V11.6426C31.1509 11.2598 31.2427 10.9336 31.4263 10.6641C31.6138 10.3945 31.8833 10.1836 32.2349 10.0312C32.5903 9.875 33.02 9.78125 33.5239 9.75L35.8735 9.60938V10.5059L33.6997 10.6465C33.2622 10.6738 32.9399 10.7676 32.7329 10.9277C32.5259 11.084 32.4224 11.3047 32.4224 11.5898V11.6016C32.4224 11.8906 32.5337 12.1191 32.7563 12.2871C32.979 12.4512 33.2603 12.5332 33.6001 12.5332C33.9165 12.5332 34.1978 12.4707 34.4438 12.3457C34.6938 12.2168 34.8892 12.0449 35.0298 11.8301C35.1704 11.6113 35.2407 11.3652 35.2407 11.0918V9.08789C35.2407 8.73633 35.1313 8.46875 34.9126 8.28516C34.6978 8.09766 34.3774 8.00391 33.9517 8.00391C33.5962 8.00391 33.3052 8.06641 33.0786 8.19141C32.856 8.31641 32.7075 8.49219 32.6333 8.71875L32.6216 8.73633H31.397L31.4028 8.69531C31.4536 8.34375 31.5923 8.03906 31.8188 7.78125C32.0493 7.51953 32.3501 7.31641 32.7212 7.17188C33.0962 7.02734 33.5239 6.95508 34.0044 6.95508C34.5396 6.95508 34.9927 7.04102 35.3638 7.21289C35.7388 7.38086 36.022 7.625 36.2134 7.94531C36.4087 8.26172 36.5063 8.64258 36.5063 9.08789V13.4414H35.2407V12.5391H35.147C35.022 12.7539 34.8657 12.9375 34.6782 13.0898C34.4907 13.2383 34.2778 13.3516 34.0396 13.4297C33.8013 13.5078 33.5415 13.5469 33.2603 13.5469Z" fill="#FAFAFA"/>
<path opacity="0.9" d="M20.9116 13.4414V7.07812H22.1831V8.05664H22.2827C22.4233 7.70508 22.6421 7.43359 22.939 7.24219C23.2397 7.05078 23.5991 6.95508 24.0171 6.95508C24.3062 6.95508 24.5659 7.00195 24.7964 7.0957C25.0269 7.18945 25.2241 7.32227 25.3882 7.49414C25.5562 7.66211 25.687 7.86133 25.7808 8.0918H25.8804C25.9858 7.86133 26.1343 7.66211 26.3257 7.49414C26.5171 7.32227 26.7397 7.18945 26.9937 7.0957C27.2515 7.00195 27.5249 6.95508 27.814 6.95508C28.2437 6.95508 28.6108 7.03906 28.9155 7.20703C29.2202 7.37109 29.4526 7.60938 29.6128 7.92188C29.7729 8.23438 29.853 8.61133 29.853 9.05273V13.4414H28.5815V9.35742C28.5815 9.06445 28.5366 8.82227 28.4468 8.63086C28.3569 8.43555 28.2202 8.28906 28.0366 8.19141C27.8569 8.09375 27.6304 8.04492 27.3569 8.04492C27.0874 8.04492 26.8511 8.10742 26.6479 8.23242C26.4487 8.35352 26.2925 8.51758 26.1792 8.72461C26.0698 8.92773 26.0151 9.1582 26.0151 9.41602V13.4414H24.7437V9.22852C24.7437 8.98633 24.6929 8.77734 24.5913 8.60156C24.4937 8.42188 24.353 8.28516 24.1694 8.19141C23.9858 8.09375 23.769 8.04492 23.519 8.04492C23.2651 8.04492 23.0366 8.11133 22.8335 8.24414C22.6343 8.37695 22.4761 8.55664 22.3589 8.7832C22.2417 9.00586 22.1831 9.25586 22.1831 9.5332V13.4414H20.9116Z" fill="#FAFAFA"/>
</svg>
