<svg width="20" height="19" viewBox="0 0 20 19" fill="none" xmlns="http://www.w3.org/2000/svg">
<path d="M9.90639 0.441406C7.36872 0.441406 7.04932 0.452655 6.05217 0.495776C5.05696 0.538896 4.37727 0.690755 3.78326 0.913857C3.16783 1.14446 2.64784 1.45193 2.12784 1.95062C1.60784 2.4512 1.28844 2.95364 1.04889 3.54421C0.817131 4.11602 0.659378 4.77033 0.614585 5.72836C0.569791 6.68826 0.558105 6.99572 0.558105 9.43859C0.558105 11.8815 0.569791 12.1889 0.614585 13.1488C0.661326 14.1069 0.817131 14.7612 1.04889 15.333C1.28844 15.9254 1.60784 16.426 2.12784 16.9266C2.64784 17.4271 3.16783 17.7346 3.78326 17.9652C4.37727 18.1883 5.05696 18.3402 6.05217 18.3833C7.04932 18.4264 7.36872 18.4377 9.90639 18.4377C12.4441 18.4377 12.7635 18.4264 13.7606 18.3833C14.7558 18.3402 15.4355 18.1883 16.0315 17.9652C16.6469 17.7346 17.1669 17.4271 17.6869 16.9266C18.2069 16.426 18.5263 15.9235 18.7658 15.333C18.9956 14.7612 19.1534 14.1069 19.2001 13.1488C19.2449 12.1889 19.2566 11.8833 19.2566 9.43859C19.2566 6.99385 19.2449 6.68826 19.2001 5.72836C19.1534 4.77033 18.9956 4.11602 18.7658 3.54421C18.5263 2.95177 18.2069 2.4512 17.6869 1.95062C17.1669 1.45005 16.6469 1.14258 16.0315 0.913857C15.4355 0.690755 14.7558 0.538896 13.7606 0.495776C12.7635 0.452655 12.446 0.441406 9.90639 0.441406ZM9.06894 2.06311C9.31822 2.06311 9.59478 2.06311 9.90833 2.06311C12.4051 2.06311 12.6992 2.07249 13.6866 2.11561C14.5981 2.15498 15.0927 2.30309 15.4219 2.42495C15.8581 2.58806 16.1697 2.78304 16.4969 3.098C16.8241 3.41297 17.0267 3.71294 17.1961 4.1329C17.3246 4.44974 17.4765 4.92594 17.5174 5.80335C17.5622 6.752 17.572 7.03697 17.572 9.43859C17.572 11.8402 17.5622 12.1252 17.5174 13.0738C17.4765 13.9512 17.3227 14.4275 17.1961 14.7443C17.0267 15.1642 16.8241 15.4623 16.4969 15.7773C16.1697 16.0923 15.8581 16.2873 15.4219 16.4504C15.0927 16.5741 14.5981 16.7203 13.6866 16.7597C12.7011 16.8028 12.4051 16.8122 9.90833 16.8122C7.41156 16.8122 7.11553 16.8028 6.13007 16.7597C5.21861 16.7185 4.72393 16.5722 4.3948 16.4504C3.95854 16.2873 3.64693 16.0923 3.31974 15.7773C2.99255 15.4623 2.79001 15.1624 2.62057 14.7424C2.49203 14.4256 2.34012 13.9494 2.29922 13.072C2.25443 12.1233 2.24469 11.8383 2.24469 9.43484C2.24469 7.03135 2.25443 6.74825 2.29922 5.7996C2.34012 4.92219 2.49398 4.44599 2.62057 4.12915C2.79001 3.70919 2.99255 3.40922 3.31974 3.09425C3.64693 2.77929 3.95854 2.58431 4.3948 2.4212C4.72393 2.29746 5.21861 2.15123 6.13007 2.10998C6.99284 2.07249 7.32587 2.06124 9.06894 2.05936V2.06311ZM14.898 3.55733C14.2787 3.55733 13.7762 4.04103 13.7762 4.63722C13.7762 5.23341 14.2787 5.71711 14.898 5.71711C15.5173 5.71711 16.0198 5.23341 16.0198 4.63722C16.0198 4.04103 15.5173 3.55733 14.898 3.55733ZM9.90639 4.81908C7.25576 4.81908 5.10565 6.88886 5.10565 9.44047C5.10565 11.9921 7.25576 14.0619 9.90639 14.0619C12.557 14.0619 14.7071 11.994 14.7071 9.44047C14.7071 6.88699 12.559 4.81908 9.90639 4.81908ZM9.90639 6.44078C11.628 6.44078 13.0225 7.78314 13.0225 9.44047C13.0225 11.0978 11.628 12.4402 9.90639 12.4402C8.18474 12.4402 6.79029 11.0978 6.79029 9.44047C6.79029 7.78314 8.18474 6.44078 9.90639 6.44078Z" fill="#FAFAFA"/>
</svg>
