<svg width="94" height="24" viewBox="0 0 94 24" fill="none" xmlns="http://www.w3.org/2000/svg">
<path d="M43.3955 9.16342C43.3955 15.0263 39.1561 18.4175 34.4988 18.4175C29.8414 18.4175 25.6021 14.9688 25.6021 9.62325C25.6021 4.2777 29.8414 0.771484 34.4391 0.771484C40.1115 0.771484 43.3358 5.02493 43.3358 9.10594L43.3955 9.16342ZM40.41 10.0256C40.41 5.71468 37.7231 1.57619 34.1405 1.57619C30.2594 1.57619 28.5278 5.19737 28.5278 8.99098C28.5278 12.7846 30.7371 17.6128 34.857 17.6128C38.7381 17.6128 40.41 13.8192 40.41 10.0256Z" fill="#F8F8F8"/>
<path d="M44.5905 17.2102L46.1429 16.6929V8.12855L44.5308 7.26636V6.92149L48.2328 5.59947H48.3522V8.8183H48.5313L48.8298 8.30098C50.1435 6.0593 50.8003 5.54199 51.875 5.54199C52.6513 5.54199 53.2484 6.00182 53.2484 6.80653C53.2484 7.49628 52.8901 7.95611 52.293 8.30098L50.5614 7.66872C50.024 7.78367 49.0687 8.70334 48.591 9.96788V16.6929L50.5614 17.2102V17.785H44.5308V17.2102H44.5905Z" fill="#F8F8F8"/>
<path d="M54.1437 17.2102L55.6961 16.6929V8.12852L54.1437 7.26634V6.92146L58.0845 5.59944V16.6929L59.8758 17.2102V17.785H54.084V17.2102H54.1437ZM55.099 2.20818C55.099 1.40348 55.8753 0.65625 56.7709 0.65625C57.6069 0.65625 58.3831 1.40348 58.3831 2.20818C58.3831 3.01289 57.6069 3.8176 56.7709 3.8176C55.8753 3.8176 55.099 3.07037 55.099 2.20818Z" fill="#F8F8F8"/>
<path d="M69.3106 7.1507C70.0271 7.89793 70.6242 8.70264 70.6242 9.85222C70.6242 12.3238 68.2358 13.9907 65.6683 13.9907C64.8921 13.9907 64.1158 13.8183 63.459 13.5884C63.1008 13.9907 62.8619 14.3356 62.8619 14.7379C62.8619 15.2552 63.2799 15.6001 64.1158 15.6576L69.0717 15.945C71.281 16.1174 72.4155 17.1521 72.4155 18.589C72.4155 21.2331 68.8926 23.7621 64.8324 23.7621C62.1454 23.7621 60.2944 22.7275 60.2944 20.7157C60.2944 19.5662 61.3692 18.5315 62.6828 17.8993L62.9814 17.7843V17.6694C62.0857 17.6694 61.0109 17.0946 61.0109 15.8875C61.0109 14.9678 61.8469 14.1631 62.8619 13.3584C61.7275 12.6687 60.9512 11.5191 60.9512 9.96718C60.9512 7.38062 63.1008 5.65625 65.728 5.65625C66.8625 5.65625 67.6387 5.94364 68.7135 6.28852L72.3558 5.88617V7.32314L69.2509 7.1507H69.3106ZM63.6979 17.7843C63.1605 18.3016 62.6231 18.9914 62.6231 20.026C62.6231 21.5779 63.877 22.6126 66.2057 22.6126C69.1911 22.6126 70.3853 20.8882 70.3853 19.6811C70.3853 18.8764 69.7882 18.3016 68.8329 18.1292L63.6979 17.7843ZM65.9668 13.301C67.161 13.301 68.1761 12.1514 68.1761 10.3695C68.1761 7.61054 66.9222 6.28852 65.4892 6.28852C64.0561 6.28852 63.3396 7.4381 63.3396 9.10499C63.3396 11.6915 64.3547 13.301 65.9668 13.301Z" fill="#F8F8F8"/>
<path d="M73.3097 17.2102L74.8622 16.6929V8.12852L73.3097 7.26634V6.92146L77.2505 5.59944V16.6929L79.0418 17.2102V17.785H73.25V17.2102H73.3097ZM74.3248 2.20818C74.3248 1.40348 75.101 0.65625 75.9966 0.65625C76.8326 0.65625 77.6088 1.40348 77.6088 2.20818C77.6088 3.01289 76.8326 3.8176 75.9966 3.8176C75.101 3.8176 74.3248 3.07037 74.3248 2.20818Z" fill="#F8F8F8"/>
<path d="M80.1175 17.2094L81.6699 16.6921V8.12771L80.0578 7.26552V6.92065L83.7597 5.59863H83.8792L83.9986 7.89779C84.536 7.38048 86.387 5.59863 88.4768 5.59863C90.6861 5.59863 91.8802 6.63325 91.8802 9.73712V16.6346L93.4924 17.1519V17.6692H87.8797V17.0944L89.4322 16.5771V9.67964C89.3127 8.24267 88.7156 7.15057 87.0438 7.15057C85.7899 7.15057 84.536 8.07023 84.0583 8.47258V16.6346L85.6705 17.1519V17.7267H79.998V17.1519L80.1175 17.2094Z" fill="#F8F8F8"/>
<path d="M19.5096 13.7438C19.2651 12.7435 18.8983 11.7432 18.5316 10.684C18.2871 9.97791 18.2871 9.15412 18.5316 8.38918C18.8983 7.33002 19.204 6.32971 19.5096 5.3294C20.1208 2.7992 16.6978 -0.495943 14.0694 0.0924758C13.0914 0.327843 12.0523 0.622052 10.952 0.975104C10.2185 1.21047 9.36279 1.21047 8.56816 0.975104C7.52903 0.622052 6.4899 0.327843 5.45077 0.0924758C2.88351 -0.495943 -0.539505 2.7992 0.0717482 5.3294C0.316249 6.32971 0.683001 7.33002 1.04975 8.38918C1.29425 9.09528 1.29425 9.91906 1.04975 10.684C0.683001 11.7432 0.377375 12.7435 0.0717482 13.7438C-0.539505 16.274 2.88351 19.5691 5.5119 18.9807C6.4899 18.7453 7.52903 18.4511 8.62929 18.0981C9.36279 17.8627 10.2185 17.8627 11.0132 18.0981C12.0523 18.4511 13.0914 18.7453 14.1306 18.9807C16.759 19.5691 20.182 16.274 19.5707 13.7438H19.5096ZM9.79067 16.1563C6.0009 16.1563 2.88351 13.2142 2.88351 9.50717C2.88351 5.80014 6.0009 2.91688 9.79067 2.91688C13.5804 2.91688 16.6978 5.85898 16.6978 9.56601C16.6978 13.2731 13.6416 16.2151 9.79067 16.2151V16.1563Z" fill="#F8F8F8"/>
</svg>
