<svg width="48" height="49" viewBox="0 0 48 49" fill="none" xmlns="http://www.w3.org/2000/svg">
<path d="M48 24.4417C48 25.142 47.7846 25.8267 47.3848 26.4016C46.985 26.9759 46.4178 27.4149 45.7617 27.6584L32.1475 32.6038L27.2168 46.2034C26.9733 46.8594 26.5343 47.4266 25.96 47.8264C25.385 48.2263 24.7003 48.4416 24 48.4416C23.2997 48.4416 22.615 48.2263 22.04 47.8264C21.4657 47.4266 21.0267 46.8594 20.7832 46.2034L15.8379 32.6038L2.23828 27.6584C1.58222 27.4149 1.01504 26.9759 0.615233 26.4016C0.215373 25.8267 -1.07969e-06 25.142 -1.04907e-06 24.4416C-1.01846e-06 23.7413 0.215373 23.0566 0.615233 22.4817C1.01504 21.9074 1.58222 21.4684 2.23828 21.2249L15.8525 16.2795L20.7832 2.67993C21.0267 2.02387 21.4657 1.45669 22.04 1.05688C22.615 0.657024 23.2997 0.441649 24 0.441649C24.7003 0.441649 25.385 0.657024 25.96 1.05688C26.5343 1.45669 26.9733 2.02387 27.2168 2.67993L32.1621 16.2942L45.7617 21.2249C46.4178 21.4684 46.985 21.9074 47.3848 22.4817C47.7846 23.0566 48 23.7413 48 24.4417Z" fill="url(#paint0_linear_27_43591)"/>
<defs>
<linearGradient id="paint0_linear_27_43591" x1="48" y1="48.4416" x2="17.2981" y2="-8.70784" gradientUnits="userSpaceOnUse">
<stop stop-color="#9BE1F6"/>
<stop offset="0.5" stop-color="#847DFF"/>
<stop offset="1" stop-color="#9BE1F6"/>
</linearGradient>
</defs>
</svg>
