<svg xmlns="http://www.w3.org/2000/svg" class="Follow_icon__XNozr Follow_youtube__dy2IG" viewBox="0 0 22 16"><path fill="black" stroke="white" stroke-linecap="round" stroke-linejoin="round" stroke-width="1.5" d="m13 8.001-3.5 2v-4z"/><path fill="none" stroke="white" stroke-width="1.5" d="M1 8.708V7.293c0-2.895 0-4.343.905-5.274S4.236 1.047 7.087.967C8.438.929 9.818.901 10.999.901s2.561.027 3.912.066c2.851.081 4.277.121 5.182 1.052s.905 2.379.905 5.274v1.415c0 2.895 0 4.343-.905 5.274-.906.932-2.331.972-5.182 1.052-1.351.038-2.731.066-3.912.066s-2.561-.027-3.912-.066c-2.851-.081-4.277-.121-5.182-1.052S1 11.603 1 8.708Z"/></svg>