<svg xmlns="http://www.w3.org/2000/svg" width="18" height="49" viewBox="0 0 18 49" fill="none" aria-label="Decorative olive branch" aria-hidden="true" role="img" style="fill: var(--mui-palette-common-white);"><path d="M14.6297 45.0042C15.6255 42.823 15.75 39.0255 13.034 35.6828C11.1115 37.4967 10.9419 41.7964 14.6297 45.0042Z" fill="current"></path><path d="M10.1877 9.89245C12.5994 9.32587 15.0571 6.38739 14.8652 1.40968C12.7849 1.74931 9.03526 4.63191 10.1877 9.89245Z" fill="current"></path><path d="M9.6415 37.8931C11.3636 36.0815 12.2828 33.0747 11.1832 29.4145C9.05697 30.2286 7.43368 33.6883 9.6415 37.8931Z" fill="current"></path><path d="M10.6804 22.3766C8.77611 22.5571 6.17517 24.9954 7.05727 29.7346C8.63451 28.9614 10.8481 26.6602 10.6804 22.3766Z" fill="current"></path><path d="M12.2461 15.6003C10.1783 15.5016 7.48578 17.8313 7.49317 22.35C9.72529 21.7552 11.8595 19.5438 12.2461 15.6003Z" fill="current"></path><path d="M13.0009 10.0852C11.5798 9.79668 8.67504 10.7126 8.11939 15.0732C9.99959 15.0176 12.3442 13.6324 13.0009 10.0852Z" fill="current"></path><path d="M14.389 45.4811C12.4324 42.8351 9.10473 39.1551 5.89373 39.5671C7.50037 44.7834 11.712 46.5984 14.389 45.4811Z" fill="current"></path><path d="M2.43175 30.0827C2.33421 35.4731 5.86104 38.7659 8.98157 38.2175C7.83042 35.0849 5.62504 30.4649 2.43175 30.0827Z" fill="current"></path><path d="M5.75341 29.8623C5.99608 29.9791 6.25055 30.0676 6.51193 30.1261C6.28596 27.0492 5.48161 22.6305 2.68466 21.4771C1.83094 25.0302 2.84882 28.5516 5.75341 29.8623Z" fill="current"></path><path d="M6.60485 21.8379C6.86134 19.0168 6.52772 15.0631 4.125 13.7695C2.73097 17.8138 4.35912 20.9891 6.60485 21.8379Z" fill="current"></path><path d="M7.68639 14.8402C8.57639 12.1977 9.00137 8.47735 6.8655 6.78207C4.53791 10.738 6.19512 13.8304 7.68639 14.8402Z" fill="current"></path></svg>