<svg width="15" height="18" viewBox="0 0 15 18" fill="none" xmlns="http://www.w3.org/2000/svg">
  <path d="M12.5275 9.56283C12.5534 12.2868 14.9732 13.1933 15 13.2048C14.9795 13.2687 14.6134 14.4966 13.7252 15.7649C12.9573 16.8615 12.1604 17.9539 10.9051 17.9766C9.6716 17.9988 9.27497 17.2619 7.86473 17.2619C6.45492 17.2619 6.01423 17.954 4.84659 17.9988C3.63487 18.0436 2.71212 16.8131 1.93795 15.7206C0.355974 13.4858 -0.852986 9.4057 0.770342 6.65155C1.57678 5.28383 3.01794 4.41773 4.58218 4.39552C5.77207 4.37334 6.89514 5.1777 7.62256 5.1777C8.34952 5.1777 9.7143 4.21039 11.1491 4.35245C11.7497 4.37688 13.4358 4.58952 14.5184 6.13794C14.4312 6.19078 12.5066 7.28549 12.5275 9.56283ZM10.2093 2.87397C10.8526 2.1131 11.2856 1.0539 11.1675 0C10.2402 0.0364156 9.11892 0.603766 8.4538 1.36422C7.85772 2.03763 7.33569 3.11548 7.47654 4.14852C8.51011 4.22665 9.56598 3.63532 10.2093 2.87397Z" fill="black"/>
</svg>
